SplineFontDB: 3.0
FontName: FabrikCondBold
FullName: FabrikCondBold
FamilyName: FabrikCond
Weight: Bold
Copyright: OFL Open Font License
Version: Version 1.5 (20.02.2010)
DefaultBaseFilename: fabrik_bc
ItalicAngle: 0
UnderlinePosition: -125
UnderlineWidth: 50
Ascent: 800
Descent: 200
LayerCount: 2
Layer: 0 1 "Back" 
Layer: 1 1 "Fore" 
XUID: [1021 639 1133821918 5829157]
UniqueID: 4050836
FSType: 0
OS2Version: 0
OS2_WeightWidthSlopeOnly: 0
OS2_UseTypoMetrics: 0
CreationTime: 1256911458
ModificationTime: 1266668034
OS2TypoAscent: 0
OS2TypoAOffset: 1
OS2TypoDescent: 0
OS2TypoDOffset: 1
OS2TypoLinegap: 90
OS2WinAscent: 0
OS2WinAOffset: 1
OS2WinDescent: 0
OS2WinDOffset: 1
HheadAscent: 0
HheadAOffset: 1
HheadDescent: 0
HheadDOffset: 1
OS2Vendor: 'PfEd'
Lookup: 4 0 1 "'liga' Standard Ligatures in Latin lookup 0"  {"'liga' Standard Ligatures in Latin lookup 0 subtable"  } ['liga' ('latn' <'dflt' > ) ]
Lookup: 4 0 0 "'dlig' optionale Ligaturen in Latin lookup 1"  {"'dlig' optionale Ligaturen in Latin lookup 1 subtable"  } ['dlig' ('latn' <'dflt' > ) ]
Lookup: 258 0 0 "'kern' Horizontales Kerning in Latin lookup 0"  {"'kern' Horizontales Kerning in Latin lookup 0 subtable"  } ['kern' ('latn' <'dflt' > ) ]
DEI: 0
Encoding: AdobeStandard
UnicodeInterp: none
NameList: Adobe Glyph List
DisplaySize: -24
AntiAlias: 1
FitToEm: 1
WinInfo: 0 32 16
BeginPrivate: 7
BlueValues 32 [-13 0 410 431 686 719 748 748 ]
OtherBlues 12 [-205 -199 ]
StdHW 4 [81]
StemSnapH 39 [20 61 70 74 81 86 91 102 119 455 465 ]
StdVW 4 [79]
StemSnapV 18 [73 79 83 91 103 ]
BlueScale 4 0.03
EndPrivate
BeginChars: 327 182

StartChar: .notdef
Encoding: 0 -1 0
AltUni2: 00fffd.ffffffff.0
Width: 472
LayerCount: 2
Fore
SplineSet
67 533 m 1,0,-1
 67 538 l 1,1,-1
 72 538 l 1,2,-1
 428 538 l 1,3,-1
 433 538 l 1,4,-1
 433 533 l 1,5,-1
 433 -2.18557e-07 l 1,6,-1
 433 -5 l 1,7,-1
 428 -5 l 1,8,-1
 72 -5 l 1,9,-1
 67 -5 l 1,10,-1
 67 -2.18557e-07 l 1,11,-1
 67 533 l 1,0,-1
121.5 55 m 1,12,-1
 378.5 55 l 1,13,-1
 378.5 478 l 1,14,-1
 121.5 478 l 1,15,-1
 121.5 55 l 1,12,-1
EndSplineSet
EndChar

StartChar: exclam
Encoding: 33 33 4
Width: 185
Flags: W
HStem: -5 21G<72.1727 93.8485> 678 20G<36.1839 126.28>
VStem: 26.38 113.24<21.9413 97.9705> 36.1839 90.0961<247 698>
LayerCount: 2
Fore
SplineSet
36.1839 698 m 1,0,-1
 126.28 698 l 1,1,-1
 126.28 247 l 1,2,-1
 35.8361 247 l 1,3,-1
 36.1839 698 l 1,0,-1
43.8946 106.315 m 128,-1,5
 61.3738 123.5 61.3738 123.5 83 123.5 c 128,-1,6
 104.526 123.5 104.526 123.5 121.986 107.429 c 128,-1,7
 139.62 91.1982 139.62 91.1982 139.62 61.0865 c 128,-1,8
 139.62 30.9748 139.62 30.9748 122.188 13.0173 c 128,-1,9
 104.697 -5 104.697 -5 83 -5 c 128,-1,10
 61.3453 -5 61.3453 -5 43.8661 12.4628 c 128,-1,11
 26.38 29.9326 26.38 29.9326 26.38 59.5143 c 128,-1,4
 26.38 89.096 26.38 89.096 43.8946 106.315 c 128,-1,5
EndSplineSet
EndChar

StartChar: quotedbl
Encoding: 34 34 5
Width: 321
Flags: W
HStem: 543.437 217.063<237.306 246.99>
LayerCount: 2
Fore
SplineSet
234.522 556.994 m 2,0,1
 231.928 569.626 231.928 569.626 211.814 625.895 c 128,-1,2
 191.699 682.163 191.699 682.163 191.699 704.631 c 128,-1,3
 191.699 727.1 191.699 727.1 208.751 743.8 c 128,-1,4
 225.802 760.5 225.802 760.5 246.99 760.5 c 128,-1,5
 268.125 760.5 268.125 760.5 285.588 743.871 c 128,-1,6
 303.16 727.138 303.16 727.138 303.16 696 c 0,7,8
 296.839 651.188 296.839 651.188 284.114 625.874 c 128,-1,9
 271.389 600.561 271.389 600.561 258.938 580.587 c 128,-1,10
 246.486 560.613 246.486 560.613 243.83 555.643 c 2,11,-1
 237.306 543.437 l 1,12,-1
 234.522 556.994 l 2,0,1
79.6622 556.994 m 2,13,14
 77.0617 569.661 77.0617 569.661 56.9509 625.907 c 128,-1,15
 36.84 682.153 36.84 682.153 36.84 704.622 c 128,-1,16
 36.84 727.092 36.84 727.092 53.9213 743.822 c 128,-1,17
 70.9493 760.5 70.9493 760.5 92.12 760.5 c 128,-1,18
 113.262 760.5 113.262 760.5 130.728 743.871 c 128,-1,19
 148.3 727.141 148.3 727.141 148.3 696 c 0,20,21
 141.984 651.226 141.984 651.226 129.234 625.857 c 128,-1,22
 116.484 600.488 116.484 600.488 104.056 580.553 c 128,-1,23
 91.6287 560.618 91.6287 560.618 88.9695 555.643 c 2,24,-1
 82.4454 543.438 l 1,25,-1
 79.6622 556.994 l 2,13,14
EndSplineSet
EndChar

StartChar: numbersign
Encoding: 35 35 6
Width: 429
Flags: MW
HStem: 219 87<66.86 115.47 66.86 115.47 193.01 260.11 66.86 193.01 339.52 388.14> 389 91<66.86 193.01 193.01 260.11 339.52 388.14>
VStem: 115.48 77.53<65 214 311 384 485 625> 260.11 79.42<65 214 311 384 485 625>
LayerCount: 2
Fore
SplineSet
110.47 625 m 1,0,-1
 198.01 625 l 1,1,-1
 198.01 485 l 1,2,-1
 255.11 485 l 1,3,-1
 255.11 625 l 1,4,-1
 344.52 625 l 1,5,-1
 344.52 485 l 1,6,-1
 393.14 485 l 1,7,-1
 393.14 384 l 1,8,-1
 344.52 384 l 1,9,-1
 344.52 311 l 1,10,-1
 393.14 311 l 1,11,-1
 393.14 214 l 1,12,-1
 344.52 214 l 1,13,-1
 344.52 65 l 1,14,-1
 255.11 65 l 1,15,-1
 255.11 214 l 1,16,-1
 198.01 214 l 1,17,-1
 198.01 65 l 1,18,-1
 110.47 65 l 1,19,-1
 110.47 214 l 1,20,-1
 61.86 214 l 1,21,-1
 61.86 311 l 1,22,-1
 110.47 311 l 1,23,-1
 110.47 385 l 1,24,-1
 61.86 385 l 1,25,-1
 61.86 485 l 1,26,-1
 110.47 485 l 1,27,-1
 110.47 625 l 1,0,-1
198.01 384 m 1,28,-1
 198.01 311 l 1,29,-1
 255.11 311 l 1,30,-1
 255.11 384 l 1,31,-1
 198.01 384 l 1,28,-1
EndSplineSet
EndChar

StartChar: dollar
Encoding: 36 36 7
Width: 692
Flags: W
HStem: 605.155 81.744<371.143 435.81>
VStem: 203.216 84.989<497.293 548.623> 464.613 86.254<196.193 257.989>
LayerCount: 2
Fore
SplineSet
457.324 570.7 m 1,0,1
 420.887 605.155 420.887 605.155 371.143 605.155 c 0,2,3
 348.074 605.155 348.074 605.155 323.547 590.08 c 128,-1,4
 299.019 575.005 299.019 575.005 288.205 533.741 c 0,5,6
 288.126 533.438 288.126 533.438 288.126 519.722 c 128,-1,7
 288.126 506.007 288.126 506.007 297.244 486.527 c 0,8,9
 305.364 469.181 305.364 469.181 325.456 453.279 c 0,10,11
 357.499 427.919 357.499 427.919 392.317 414.91 c 128,-1,12
 427.134 401.901 427.134 401.901 435.152 400.244 c 0,13,14
 475.315 391.942 475.315 391.942 520.506 333.812 c 0,15,16
 550.867 294.759 550.867 294.759 550.867 237.119 c 0,17,18
 550.867 157.213 550.867 157.213 511.989 102.088 c 128,-1,19
 473.111 46.9631 473.111 46.9631 404.482 27.3242 c 1,20,-1
 411.736 -35 l 1,21,-1
 333.996 -35 l 1,22,-1
 340.252 22.4227 l 1,23,24
 264.995 30.4832 264.995 30.4832 185.258 110.009 c 1,25,-1
 225.832 188.894 l 1,26,27
 287.158 113.894 287.158 113.894 356.999 113.894 c 0,28,29
 414.575 113.894 414.575 113.894 452.242 175.311 c 1,30,31
 464.613 204.017 464.613 204.017 464.613 224.438 c 128,-1,32
 464.613 244.858 464.613 244.858 458.779 259.398 c 0,33,34
 442.906 298.962 442.906 298.962 401.523 316.381 c 0,35,36
 388.799 321.736 388.799 321.736 368.986 328.781 c 0,37,38
 279.768 360.503 279.768 360.503 242.997 407.03 c 0,39,40
 203.216 457.367 203.216 457.367 203.216 532.688 c 0,41,42
 203.216 599.101 203.216 599.101 243.088 637.581 c 128,-1,43
 282.96 676.061 282.96 676.061 340.898 686.128 c 1,44,-1
 329.21 755 l 1,45,-1
 407.524 755 l 1,46,-1
 396.858 686.899 l 1,47,48
 457.259 686.899 457.259 686.899 498.451 640.791 c 1,49,-1
 457.324 570.7 l 1,0,1
EndSplineSet
EndChar

StartChar: percent
Encoding: 37 37 8
Width: 528
Flags: W
VStem: 61.0101 69.6299<442.64 496.085> 194.51 71.41<442.308 498.254> 295.98 69.63<129.764 191.237> 429.48 72.29<130.665 192.204>
LayerCount: 2
Fore
SplineSet
140.735 499.954 m 128,-1,1
 130.64 489.918 130.64 489.918 130.64 469.362 c 128,-1,2
 130.64 448.807 130.64 448.807 146.962 438.757 c 0,3,4
 155.103 433.745 155.103 433.745 162.914 433.745 c 128,-1,5
 170.701 433.745 170.701 433.745 178.602 438.729 c 0,6,7
 194.51 448.763 194.51 448.763 194.51 470.281 c 128,-1,8
 194.51 491.799 194.51 491.799 184.478 500.9 c 128,-1,9
 174.445 510 174.445 510 162.58 510 c 128,-1,0
 150.84 510 150.84 510 140.735 499.954 c 128,-1,1
163.47 358.5 m 128,-1,11
 136.934 358.5 136.934 358.5 113.908 369.854 c 128,-1,12
 90.8829 381.209 90.8829 381.209 75.9465 407.949 c 128,-1,13
 61.0101 434.689 61.0101 434.689 61.0101 471.031 c 128,-1,14
 61.0101 507.372 61.0101 507.372 76.026 532.68 c 0,15,16
 102.323 577 102.323 577 163.47 577 c 0,17,18
 220.446 577 220.446 577 250.98 525.552 c 0,19,20
 265.92 500.378 265.92 500.378 265.92 468.027 c 128,-1,21
 265.92 435.676 265.92 435.676 251.025 409.525 c 128,-1,22
 236.066 383.263 236.066 383.263 213.011 370.848 c 128,-1,10
 190.081 358.5 190.081 358.5 163.47 358.5 c 128,-1,11
381.836 193.691 m 0,23,24
 365.61 184.144 365.61 184.144 365.61 160.5 c 128,-1,25
 365.61 136.857 365.61 136.857 381.836 127.309 c 0,26,27
 389.796 122.625 389.796 122.625 397.632 122.625 c 128,-1,28
 405.468 122.625 405.468 122.625 413.563 127.73 c 0,29,30
 429.48 137.766 429.48 137.766 429.48 161.435 c 128,-1,31
 429.48 185.103 429.48 185.103 413.735 194.167 c 0,32,33
 405.986 198.628 405.986 198.628 398.107 198.628 c 128,-1,34
 390.227 198.628 390.227 198.628 381.836 193.691 c 0,23,24
311.327 96.0048 m 128,-1,36
 295.98 122.654 295.98 122.654 295.98 159.532 c 128,-1,37
 295.98 196.41 295.98 196.41 311.459 221.714 c 0,38,39
 338.244 265.5 338.244 265.5 398.43 265.5 c 0,40,41
 454.248 265.5 454.248 265.5 486.33 214.149 c 0,42,43
 501.77 189.436 501.77 189.436 501.77 156.52 c 128,-1,44
 501.77 123.603 501.77 123.603 486.378 97.9291 c 128,-1,45
 471.009 72.2919 471.009 72.2919 448.049 59.391 c 128,-1,46
 425.108 46.5 425.108 46.5 398.43 46.5 c 128,-1,47
 371.869 46.5 371.869 46.5 349.315 57.853 c 128,-1,35
 326.76 69.2059 326.76 69.2059 311.327 96.0048 c 128,-1,36
441.601 566.668 m 1,48,-1
 498.925 499.999 l 1,49,-1
 106.96 44.3323 l 1,50,-1
 49.6249 111 l 1,51,-1
 441.601 566.668 l 1,48,-1
EndSplineSet
EndChar

StartChar: ampersand
Encoding: 38 38 9
Width: 556
Flags: W
HStem: -15 86<68.641 444.913> 374.25 92.21<193.566 379.181 466.387 530.25> 628.023 95.3198<221.501 337.922>
VStem: 19.5475 90.0225<25.1366 353.99> 118.759 94.903<472.771 576.633> 379.181 87.206<191.749 410.779>
LayerCount: 2
Fore
SplineSet
293.383 723.343 m 0,0,1
 327.644 723.343 327.644 723.343 365.144 706.344 c 0,2,3
 404.789 688.264 404.789 688.264 431.008 654.144 c 1,4,-1
 363.853 586.852 l 1,5,6
 347.983 628.023 347.983 628.023 287.52 628.023 c 0,7,8
 213.662 628.023 213.662 628.023 213.662 534.944 c 0,9,10
 213.662 466.46 213.662 466.46 280.65 466.46 c 2,11,-1
 530.25 466.46 l 1,12,-1
 530.25 374.25 l 1,13,-1
 466.387 374.25 l 1,14,15
 466.59 236.229 466.59 236.229 466.59 233.94 c 0,16,17
 466.59 -15 466.59 -15 240 -15 c 0,18,19
 19.5475 -15 19.5475 -15 19.5475 226.994 c 0,20,21
 19.5475 393.973 19.5475 393.973 138.876 444.598 c 1,22,23
 118.759 482.773 118.759 482.773 118.759 516.114 c 128,-1,24
 118.759 549.455 118.759 549.455 123.849 575.118 c 0,25,26
 136.543 639.126 136.543 639.126 187.316 681.234 c 128,-1,27
 238.089 723.343 238.089 723.343 293.383 723.343 c 0,0,1
379.181 374.25 m 1,28,-1
 180.954 374.25 l 1,29,30
 109.57 323.964 109.57 323.964 109.57 223.878 c 0,31,32
 109.57 71 109.57 71 246 71 c 0,33,34
 399.01 71 399.01 71 380 233.615 c 0,35,36
 379.181 240.621 379.181 240.621 379.181 374.25 c 1,28,-1
EndSplineSet
EndChar

StartChar: quotesingle
Encoding: 169 39 10
Width: 145
Flags: W
HStem: 548.579 213.421<73.9959 75.9882>
VStem: 21.16 109.68<654.079 737.427>
LayerCount: 2
Fore
SplineSet
73.9959 548.579 m 1,0,1
 21.16 633.603 21.16 633.603 21.16 701 c 0,2,3
 21.16 729.021 21.16 729.021 38.1796 745.51 c 128,-1,4
 55.1992 762 55.1992 762 75.9882 762 c 128,-1,5
 96.6523 762 96.6523 762 113.667 746.16 c 128,-1,6
 130.84 730.172 130.84 730.172 130.84 697.088 c 128,-1,7
 130.84 664.004 130.84 664.004 113.646 623.315 c 0,8,9
 95.0325 579.044 95.0325 579.044 73.9959 548.579 c 1,0,1
EndSplineSet
EndChar

StartChar: parenleft
Encoding: 40 40 11
Width: 253
Flags: MW
VStem: 64.39 79.66<148 326.5 326.5 328 328 502 502 505>
LayerCount: 2
Fore
SplineSet
149.05 148 m 1,14,15
 149.05 34.4124 149.05 34.4124 222.71 -15.3977 c 1,17,-1
 222.71 -145.334 l 1,20,-1
 152.361 -100.575 152.361 -100.575 105.876 -31.2675 c 128,-1,24
 59.39 38.0397 59.39 38.0397 59.39 147.976 c 2,25,-1
 59.39 502 l 2,1,2
 59.39 611.874 59.39 611.874 107.122 673.643 c 0,3,4
 168.057 752.498 168.057 752.498 223.6 787 c 1,6,-1
 223.6 655.677 l 1,9,-1
 149.05 594.404 149.05 594.404 149.05 505 c 1,12,-1
 149.05 148 l 1,14,15
EndSplineSet
EndChar

StartChar: parenright
Encoding: 41 41 12
Width: 253
Flags: MW
VStem: 128.94 79.66<111.85 148 111.85 148 111.85 328>
LayerCount: 2
Fore
SplineSet
203.6 148 m 2,0,-1
 203.6 41.086 203.6 41.086 160.497 -23.2156 c 0,16,17
 118.745 -85.5017 118.745 -85.5017 60.2898 -126.526 c 1,14,15
 60.2898 -20.5787 l 1,13,-1
 133.94 32.6566 133.94 32.6566 133.94 148 c 2,11,12
 133.94 328 l 1,10,-1
 133.94 505 l 2,9,-1
 133.94 596.315 133.94 596.315 59.39 660.31 c 1,7,8
 59.39 765.512 l 1,6,-1
 105.056 732.885 105.056 732.885 158.091 667.357 c 0,4,5
 203.6 611.129 203.6 611.129 203.6 502 c 2,2,3
 203.6 148 l 2,0,-1
EndSplineSet
EndChar

StartChar: asterisk
Encoding: 42 42 13
Width: 200
Flags: W
HStem: 599.519 175.93<75.332 129.607>
VStem: 75.332 52.137<716.481 775.449>
LayerCount: 2
Fore
SplineSet
75.332 775.449 m 1,0,-1
 127.469 775.449 l 1,1,-1
 127.469 716.481 l 1,2,-1
 177.252 727.705 l 1,3,-1
 185.959 677.898 l 1,4,-1
 142.855 666.851 l 1,5,-1
 172.47 619.343 l 1,6,-1
 129.607 599.519 l 1,7,-1
 100.993 636.883 l 1,8,-1
 72.6069 599.828 l 1,9,-1
 29.7446 619.653 l 1,10,-1
 59.3271 667.132 l 1,11,-1
 24.7942 677.961 l 1,12,-1
 24.7942 727.872 l 1,13,-1
 75.332 716.443 l 1,14,-1
 75.332 775.449 l 1,0,-1
EndSplineSet
EndChar

StartChar: plus
Encoding: 43 43 14
Width: 467
Flags: MW
HStem: 321 80<288.77 404.82 288.77 288.77>
VStem: 208.78 79.99<155 315 406 554>
LayerCount: 2
Fore
SplineSet
293.77 316 m 1,0,-1
 293.77 155 l 1,1,-1
 203.79 155 l 1,2,-1
 203.79 315 l 1,3,-1
 79.18 315 l 1,4,-1
 79.18 403 l 1,5,-1
 203.79 403 l 1,6,-1
 203.79 554 l 1,7,-1
 292.89 554 l 1,8,-1
 292.89 406 l 1,9,-1
 409.82 406 l 1,10,-1
 409.82 316 l 1,11,-1
 293.77 316 l 1,0,-1
EndSplineSet
EndChar

StartChar: comma
Encoding: 44 44 15
Width: 145
Flags: W
VStem: 67.7713 64.9587<0.331449 71.0281>
LayerCount: 2
Fore
SplineSet
38.3416 113.822 m 128,-1,1
 55.3718 130.5 55.3718 130.5 76.539 130.5 c 128,-1,2
 97.6922 130.5 97.6922 130.5 115.158 113.871 c 128,-1,3
 132.73 97.1407 132.73 97.1407 132.73 71.0281 c 0,4,5
 132.73 14.3675 132.73 14.3675 84.3676 -29.6959 c 0,6,7
 67.4688 -45.0921 67.4688 -45.0921 63.7561 -47.1756 c 128,-1,8
 60.0435 -49.2591 60.0435 -49.2591 46.0551 -59.0907 c 2,9,-1
 20.6652 -76.9358 l 1,10,-1
 39.1656 -52.0193 l 2,11,12
 56.367 -28.8522 56.367 -28.8522 62.0691 -6.42807 c 128,-1,13
 67.7713 15.9961 67.7713 15.9961 67.7713 19.0644 c 128,-1,14
 67.7713 22.1328 67.7713 22.1328 67.6035 23.2704 c 1,15,16
 67.3039 23.3527 67.3039 23.3527 64.6521 22.4822 c 128,-1,17
 62.0003 21.6117 62.0003 21.6117 53.3891 21.6117 c 128,-1,18
 44.7778 21.6117 44.7778 21.6117 33.0239 34.3315 c 128,-1,19
 21.27 47.0513 21.27 47.0513 21.27 72.0777 c 128,-1,0
 21.27 97.104 21.27 97.104 38.3416 113.822 c 128,-1,1
EndSplineSet
EndChar

StartChar: hyphen
Encoding: 45 45 16
Width: 351
Flags: MW
HStem: 222 81<70.39 416.61 70.39 416.61>
LayerCount: 2
Fore
SplineSet
300.61 217 m 1,0,-1
 41.3896 217 l 1,1,-1
 41.3896 308 l 1,2,-1
 300.61 308 l 1,3,-1
 300.61 217 l 1,0,-1
EndSplineSet
EndChar

StartChar: period
Encoding: 46 46 17
Width: 177
Flags: W
LayerCount: 2
Fore
SplineSet
33.8946 106.315 m 128,-1,1
 51.3738 123.5 51.3738 123.5 73 123.5 c 128,-1,2
 94.5253 123.5 94.5253 123.5 111.986 107.429 c 128,-1,3
 129.62 91.1984 129.62 91.1984 129.62 62 c 0,4,5
 129.62 30.9748 129.62 30.9748 112.188 13.0173 c 128,-1,6
 94.6971 -5 94.6971 -5 73 -5 c 128,-1,7
 51.3453 -5 51.3453 -5 33.8661 12.4628 c 128,-1,8
 16.38 29.9326 16.38 29.9326 16.38 60 c 0,9,0
 16.38 89.096 16.38 89.096 33.8946 106.315 c 128,-1,1
EndSplineSet
EndChar

StartChar: slash
Encoding: 47 47 18
Width: 367
Flags: MW
HStem: 0 21G<4 86.8 4 4> 684 20G<256.43 334.43 334.43 334.43>
VStem: 4 330.43
LayerCount: 2
Fore
SplineSet
90.3416 -5 m 1,0,-1
 -3.10453 -5 l 1,1,-1
 252.911 709 l 1,2,-1
 341.489 709 l 1,3,-1
 90.3416 -5 l 1,0,-1
EndSplineSet
EndChar

StartChar: zero
Encoding: 48 48 19
Width: 521
Flags: MW
HStem: 3.32823 115.437 771.592 94.8641
VStem: 33.3502 80.4137 415.812 81.3164
LayerCount: 2
Fore
SplineSet
383.145 506.851 m 0,0,1
 374.605 560.441 374.605 560.441 338.007 596.709 c 0,2,3
 302.326 632.069 302.326 632.069 256.341 632.069 c 0,4,5
 209.871 632.069 209.871 632.069 174.439 596.721 c 0,6,7
 138.44 560.807 138.44 560.807 129.535 506.828 c 0,8,9
 116.972 430.673 116.972 430.673 116.972 352.391 c 0,10,11
 116.972 275.362 116.972 275.362 129.536 198.539 c 0,12,13
 138.695 142.544 138.695 142.544 174.425 107.185 c 0,14,15
 209.861 72.1182 209.861 72.1182 256.341 72.1182 c 0,16,17
 302.336 72.1182 302.336 72.1182 338.021 107.197 c 0,18,19
 374.359 142.918 374.359 142.918 383.143 198.516 c 0,20,21
 394.967 273.364 394.967 273.364 394.967 352.391 c 0,22,23
 394.967 432.658 394.967 432.658 383.145 506.851 c 0,0,1
401.351 41.9699 m 128,-1,25
 338.262 -15.7754 338.262 -15.7754 256.471 -15.7754 c 0,26,27
 174.181 -15.7754 174.181 -15.7754 110.841 41.963 c 0,28,29
 48.2029 99.0614 48.2029 99.0614 33.2186 188.866 c 0,30,31
 19 274.081 19 274.081 19 354.215 c 128,-1,32
 19 434.348 19 434.348 33.2186 519.563 c 0,33,34
 48.2029 609.368 48.2029 609.368 110.841 666.466 c 0,35,36
 174.181 724.205 174.181 724.205 256.471 724.205 c 0,37,38
 338.261 724.205 338.261 724.205 401.351 666.459 c 128,-1,39
 464.32 608.824 464.32 608.824 479.718 519.591 c 0,40,41
 493.941 437.168 493.941 437.168 493.941 354.215 c 128,-1,42
 493.941 271.261 493.941 271.261 479.718 188.838 c 0,43,24
 464.32 99.6052 464.32 99.6052 401.351 41.9699 c 128,-1,25
EndSplineSet
EndChar

StartChar: one
Encoding: 49 49 20
Width: 368
Flags: MW
HStem: 0 21G<170.95 254 170.95 170.95>
VStem: 169.18 84.82<-5 493.676>
LayerCount: 2
Fore
SplineSet
164.223 493.676 m 1,0,-1
 116.745 444.102 l 1,1,-1
 39.813 518.97 l 1,2,-1
 259 740.867 l 1,3,-1
 259 -5 l 1,4,-1
 165.967 -5 l 1,5,-1
 164.223 493.676 l 1,0,-1
EndSplineSet
EndChar

StartChar: two
Encoding: 50 50 21
Width: 509
Flags: MW
HStem: 0 80.5<213.69 470.31 213.69 470.31> 627 80.5<294.91 309>
VStem: 389.05 73.23
LayerCount: 2
Fore
SplineSet
130.315 600.913 m 1,0,1
 189.64 715 189.64 715 294.904 715 c 0,2,3
 378.19 715 378.19 715 423.98 664.62 c 128,-1,4
 469.77 614.241 469.77 614.241 469.77 535.687 c 0,5,6
 469.77 478.671 469.77 478.671 367.662 314.233 c 2,7,-1
 227.176 88 l 1,8,-1
 477.81 88 l 1,9,-1
 477.81 -5 l 1,10,-1
 44.436 -5 l 1,11,-1
 314.246 400.96 l 2,12,13
 381.55 502.873 381.55 502.873 381.55 537.406 c 128,-1,14
 381.55 571.94 381.55 571.94 361.201 595.389 c 128,-1,15
 340.852 618.838 340.852 618.838 288.106 618.838 c 0,16,17
 231.417 618.838 231.417 618.838 181.778 530.103 c 1,18,-1
 130.315 600.913 l 1,0,1
EndSplineSet
EndChar

StartChar: three
Encoding: 51 51 22
Width: 428
Flags: MW
HStem: -25.5345 85.3539 642.691 87.6865
VStem: 309.097 88.6816
LayerCount: 2
Fore
SplineSet
198 75 m 0,0,1
 319 75 319 75 319 199 c 0,2,3
 319 339 319 339 189 339 c 2,4,-1
 101 339 l 1,5,-1
 268 609 l 1,6,-1
 56 609 l 1,7,-1
 56 701 l 1,8,-1
 433 701 l 1,9,-1
 249 407 l 1,10,11
 411 375 411 375 411 199 c 0,12,13
 411 -13 411 -13 196 -13 c 0,14,15
 90.4512 -13 90.4512 -13 37 44 c 1,16,-1
 63 119 l 1,17,18
 101.876 75 101.876 75 198 75 c 0,0,1
EndSplineSet
EndChar

StartChar: four
Encoding: 52 52 23
Width: 481
Flags: W
HStem: -5 21G<308.58 398.3> 149.49 97.42<398.3 466.93> 152.5 94.4<165.933 308.37>
VStem: 308.37 89.29<-5 149.49 246.91 347.897>
LayerCount: 2
Fore
SplineSet
355.952 735.408 m 1,0,-1
 435.193 686.821 l 1,1,-1
 165.933 246.9 l 1,2,-1
 308.37 246.9 l 1,3,-1
 308.37 347.897 l 1,4,-1
 397.66 497.671 l 1,5,-1
 397.66 246.91 l 1,6,-1
 466.93 246.91 l 1,7,-1
 466.93 149.49 l 1,8,-1
 398.3 149.49 l 1,9,-1
 398.3 -5 l 1,10,-1
 308.58 -5 l 1,11,-1
 308.58 152.5 l 1,12,-1
 2.11582 152.5 l 1,13,-1
 355.952 735.408 l 1,0,-1
EndSplineSet
EndChar

StartChar: five
Encoding: 53 53 24
Width: 391
Flags: MW
HStem: -11.1 85.67 360 78.67<116.505 203.353> 614.66 81.34<134.614 349.7>
VStem: 270.23 90
LayerCount: 2
Fore
SplineSet
59.3022 109.129 m 1,0,1
 94.9944 79.6976 94.9944 79.6976 146.224 79.6976 c 128,-1,2
 197.453 79.6976 197.453 79.6976 231.342 118.258 c 128,-1,3
 265.23 156.819 265.23 156.819 265.23 204.59 c 0,4,5
 265.23 249.814 265.23 249.814 229.753 309.937 c 0,6,7
 203.162 355.001 203.162 355.001 148.013 355.001 c 1,8,-1
 24.29 355.001 l 1,9,-1
 18.7013 355.001 l 1,10,-1
 57.2967 701 l 1,11,-1
 349.7 701 l 1,12,-1
 349.7 609.66 l 1,13,-1
 134.614 609.66 l 1,14,-1
 116.505 443.67 l 1,15,-1
 147.16 443.67 l 2,16,17
 236.997 443.67 236.997 443.67 301.177 375.641 c 128,-1,18
 365.24 307.737 365.24 307.737 365.24 213.78 c 128,-1,19
 365.24 119.827 365.24 119.827 300.844 51.8635 c 128,-1,20
 236.448 -16.0999 236.448 -16.0999 148.341 -16.0999 c 0,21,22
 56.3769 -16.0999 56.3769 -16.0999 -8.75402 43.1355 c 1,23,-1
 59.3022 109.129 l 1,0,1
EndSplineSet
EndChar

StartChar: six
Encoding: 54 54 25
Width: 465
VWidth: 990
Flags: W
HStem: -14.3486 90.2949<180.895 297.751> 346.209 90.852<214.698 301.802>
VStem: 37.207 92.828<133.388 269.847> 241.032 101.731<616.346 718.077> 349.009 94.272<133.455 285.025>
LayerCount: 2
Fore
SplineSet
96.9523 50.5751 m 128,-1,1
 37.207 115.325 37.207 115.325 37.207 211.334 c 0,2,3
 37.207 256.344 37.207 256.344 63.5498 316.019 c 2,4,-1
 241.032 718.077 l 1,5,-1
 342.763 718.077 l 1,6,-1
 212.454 431.401 l 1,7,8
 227.156 437.061 227.156 437.061 240.263 437.061 c 0,9,10
 323.676 437.061 323.676 437.061 383.559 372.142 c 128,-1,11
 443.281 307.398 443.281 307.398 443.281 211.334 c 128,-1,12
 443.281 115.289 443.281 115.289 383.545 50.5573 c 128,-1,13
 323.649 -14.3486 323.649 -14.3486 240.263 -14.3486 c 128,-1,0
 156.858 -14.3486 156.858 -14.3486 96.9523 50.5751 c 128,-1,1
239.46 346.209 m 128,-1,15
 191.413 346.209 191.413 346.209 160.724 309.418 c 128,-1,16
 130.035 272.627 130.035 272.627 130.035 212.072 c 128,-1,17
 130.035 151.546 130.035 151.546 162.205 113.746 c 128,-1,18
 194.375 75.9463 194.375 75.9463 239.307 75.9463 c 128,-1,19
 284.264 75.9463 284.264 75.9463 316.637 113.435 c 128,-1,20
 349.009 150.923 349.009 150.923 349.009 209.149 c 128,-1,21
 349.009 267.515 349.009 267.515 318.212 306.862 c 128,-1,14
 287.415 346.209 287.415 346.209 239.46 346.209 c 128,-1,15
EndSplineSet
EndChar

StartChar: seven
Encoding: 55 55 26
Width: 386
Flags: MW
HStem: 0 21G<-1.17001 82.3 -1.17001 -1.17001> 618 75<32.54 247.71 32.54 32.54>
VStem: -1.17 360.44
LayerCount: 2
Fore
SplineSet
26.4787 698 m 1,0,-1
 366.653 698 l 1,1,-1
 85.6862 -5 l 1,2,-1
 -15.5942 -5 l 1,3,-1
 232.286 606 l 1,4,-1
 26.6006 606 l 1,5,-1
 26.4787 698 l 1,0,-1
EndSplineSet
EndChar

StartChar: eight
Encoding: 56 56 27
Width: 439
Flags: W
HStem: -15.6999 91.84<152.242 276.968> 338.6 71.71<162.648 264.834> 632.16 84.46<162.611 264.87>
VStem: 13.3799 84.94<136.519 278.225> 28.49 89.78<462.56 581.585> 309.24 88.44<462.563 581.567> 330.92 88.58<136.534 278.202>
LayerCount: 2
Fore
SplineSet
213.09 716.62 m 128,-1,1
 289.667 716.62 289.667 716.62 343.673 656.43 c 128,-1,2
 397.68 596.24 397.68 596.24 397.68 515.557 c 128,-1,3
 397.68 434.875 397.68 434.875 352.747 377.346 c 1,4,5
 419.5 310.661 419.5 310.661 419.5 213.698 c 128,-1,6
 419.5 116.735 419.5 116.735 360.082 50.5176 c 128,-1,7
 300.664 -15.6999 300.664 -15.6999 216.44 -15.6999 c 128,-1,8
 132.216 -15.6999 132.216 -15.6999 72.798 50.5205 c 128,-1,9
 13.3799 116.741 13.3799 116.741 13.3799 211.997 c 128,-1,10
 13.3799 307.254 13.3799 307.254 76.4251 373.529 c 1,11,12
 28.49 431.873 28.49 431.873 28.49 514.055 c 128,-1,13
 28.49 596.237 28.49 596.237 82.4955 656.428 c 128,-1,0
 136.501 716.62 136.501 716.62 213.09 716.62 c 128,-1,1
213.74 632.16 m 128,-1,15
 174.41 632.16 174.41 632.16 146.34 600.006 c 128,-1,16
 118.27 567.853 118.27 567.853 118.27 522.08 c 128,-1,17
 118.27 476.295 118.27 476.295 146.353 443.302 c 128,-1,18
 174.436 410.31 174.436 410.31 213.728 410.31 c 128,-1,19
 253.04 410.31 253.04 410.31 281.14 443.304 c 128,-1,20
 309.24 476.298 309.24 476.298 309.24 522.08 c 128,-1,21
 309.24 567.839 309.24 567.839 281.155 600 c 128,-1,14
 253.071 632.16 253.071 632.16 213.74 632.16 c 128,-1,15
214.6 338.6 m 128,-1,23
 166.624 338.6 166.624 338.6 132.472 300.239 c 128,-1,24
 98.32 261.878 98.32 261.878 98.32 207.387 c 128,-1,25
 98.32 152.873 98.32 152.873 132.476 114.507 c 128,-1,26
 166.632 76.1401 166.632 76.1401 214.6 76.1401 c 128,-1,27
 262.575 76.1401 262.575 76.1401 296.747 114.511 c 128,-1,28
 330.92 152.881 330.92 152.881 330.92 207.37 c 128,-1,29
 330.92 261.856 330.92 261.856 296.749 300.228 c 128,-1,22
 262.577 338.6 262.577 338.6 214.6 338.6 c 128,-1,23
EndSplineSet
EndChar

StartChar: nine
Encoding: 57 57 28
Width: 432
Flags: MW
HStem: 0 21G 641.97 78.3
VStem: 19.09 80.11 330 80.11
LayerCount: 2
Fore
SplineSet
356.45 663.239 m 0,0,1
 436.426 578.829 436.426 578.829 406.473 449.718 c 1,2,-1
 213.6 -5 l 1,3,-1
 112.274 -5 l 1,4,-1
 244.76 303.812 l 1,5,6
 237.418 302.096 237.418 302.096 228.888 302.096 c 0,7,8
 142.144 302.096 142.144 302.096 73.0279 364.211 c 0,9,10
 14.0899 417.179 14.0899 417.179 14.0899 509.254 c 128,-1,11
 14.0899 601.329 14.0899 601.329 72.7909 663.305 c 128,-1,12
 131.492 725.28 131.492 725.28 214.58 725.28 c 128,-1,13
 297.668 725.28 297.668 725.28 356.45 663.239 c 0,0,1
214.58 636.97 m 128,-1,15
 168.706 636.97 168.706 636.97 136.453 602.253 c 128,-1,16
 104.2 567.536 104.2 567.536 104.2 516.17 c 128,-1,17
 104.2 464.658 104.2 464.658 135.538 429.049 c 128,-1,18
 166.875 393.44 166.875 393.44 214.837 393.44 c 128,-1,19
 262.95 393.44 262.95 393.44 293.975 426.915 c 128,-1,20
 325 460.39 325 460.39 325 513.97 c 128,-1,21
 325 567.536 325 567.536 292.735 602.253 c 128,-1,14
 260.47 636.97 260.47 636.97 214.58 636.97 c 128,-1,15
EndSplineSet
EndChar

StartChar: colon
Encoding: 58 58 29
Width: 152
Flags: MW
VStem: 28.38 104.13<43.5817 135.774 364.393 452.318>
LayerCount: 2
Fore
SplineSet
41.36 452.841 m 128,-1,1
 59.34 469.5 59.34 469.5 80.4375 469.5 c 128,-1,2
 101.441 469.5 101.441 469.5 119.312 454.03 c 0,3,4
 137.51 438.279 137.51 438.279 137.51 410 c 0,5,6
 137.51 380.844 137.51 380.844 119.467 363.859 c 128,-1,7
 101.558 347 101.558 347 80.45 347 c 128,-1,8
 59.3661 347 59.3661 347 41.3731 363.393 c 128,-1,9
 23.38 379.787 23.38 379.787 23.38 409 c 0,10,0
 23.38 436.182 23.38 436.182 41.36 452.841 c 128,-1,1
40.0046 136.315 m 128,-1,12
 57.4838 153.5 57.4838 153.5 79.11 153.5 c 128,-1,13
 100.635 153.5 100.635 153.5 118.096 137.429 c 128,-1,14
 135.73 121.198 135.73 121.198 135.73 92 c 0,15,16
 135.73 60.9748 135.73 60.9748 118.298 43.0173 c 128,-1,17
 100.807 25 100.807 25 79.11 25 c 128,-1,18
 57.4553 25 57.4553 25 39.9761 42.4628 c 128,-1,19
 22.49 59.9326 22.49 59.9326 22.49 90 c 0,20,11
 22.49 119.096 22.49 119.096 40.0046 136.315 c 128,-1,12
EndSplineSet
EndChar

StartChar: semicolon
Encoding: 59 59 30
Width: 145
Flags: W
VStem: 18.54 113.25<378.303 451.517> 23 111.46<61.4031 126.632>
LayerCount: 2
Fore
SplineSet
36.0774 459.034 m 128,-1,1
 53.6148 475 53.6148 475 75.17 475 c 128,-1,2
 96.6186 475 96.6186 475 114.204 459.297 c 128,-1,3
 131.79 443.594 131.79 443.594 131.79 414.91 c 128,-1,4
 131.79 386.227 131.79 386.227 114.278 369.613 c 128,-1,5
 96.7655 353 96.7655 353 75.17 353 c 128,-1,6
 53.6148 353 53.6148 353 36.0774 369.875 c 128,-1,7
 18.54 386.751 18.54 386.751 18.54 414.91 c 128,-1,0
 18.54 443.069 18.54 443.069 36.0774 459.034 c 128,-1,1
40.5046 136.315 m 128,-1,9
 57.9838 153.5 57.9838 153.5 79.17 153.5 c 128,-1,10
 100.398 153.5 100.398 153.5 117.436 136.265 c 128,-1,11
 134.46 119.044 134.46 119.044 134.46 93.558 c 128,-1,12
 134.46 68.0721 134.46 68.0721 126.62 48.3647 c 128,-1,13
 118.781 28.6574 118.781 28.6574 111.349 17.6945 c 128,-1,14
 103.823 6.59375 103.823 6.59375 86.3534 -7.85564 c 2,15,-1
 66.3052 -24.3786 l 2,16,17
 62.9106 -27.1041 62.9106 -27.1041 47.4674 -36.2965 c 2,18,-1
 19.7209 -52.8122 l 1,19,-1
 41.1729 -28.6782 l 2,20,21
 55.0887 -13.0225 55.0887 -13.0225 62.605 12.273 c 128,-1,22
 70.1214 37.5684 70.1214 37.5684 70.1214 40.7124 c 128,-1,23
 70.1214 43.8565 70.1214 43.8565 69.8393 44.9141 c 1,24,25
 71.0039 44.0293 71.0039 44.0293 59.4158 44.0293 c 128,-1,26
 47.8278 44.0293 47.8278 44.0293 35.4139 56.4795 c 128,-1,27
 23 68.9296 23 68.9296 23 94.0178 c 128,-1,8
 23 119.106 23 119.106 40.5046 136.315 c 128,-1,9
EndSplineSet
EndChar

StartChar: less
Encoding: 60 60 31
Width: 440
Flags: MW
HStem: 133.36 465.19
VStem: 10.85 406.79
LayerCount: 2
Fore
SplineSet
417.64 607.01 m 5,0,-1
 417.64 515.173 l 5,1,-1
 161.744 370.772 l 5,2,-1
 413.19 216.679 l 5,3,-1
 413.19 124.532 l 5,4,-1
 0.818502 374.225 l 5,5,-1
 417.64 607.01 l 5,0,-1
EndSplineSet
EndChar

StartChar: equal
Encoding: 61 61 32
Width: 628
Flags: MW
HStem: 209 79<136.31 531.47 136.31 136.31> 438 80<134.53 527.91 134.53 527.91 134.31 527.91>
LayerCount: 2
Fore
SplineSet
131.076 293 m 1,10,-1
 536.47 293 l 1,1,-1
 536.47 204 l 1,4,-1
 131.324 204 l 1,7,-1
 131.076 293 l 1,10,-1
129.544 523 m 1,22,-1
 532.91 523 l 1,13,-1
 532.91 433 l 1,16,-1
 129.296 433 l 1,19,-1
 129.544 523 l 1,22,-1
EndSplineSet
EndChar

StartChar: greater
Encoding: 62 62 33
Width: 440
Flags: MW
HStem: 132.992 465.19
VStem: -37.182 406.79
LayerCount: 2
Fore
SplineSet
0.818359 124.532 m 5,0,-1
 0.818359 216.369 l 5,1,-1
 256.714 360.77 l 5,2,-1
 5.26758 514.863 l 5,3,-1
 5.26758 607.01 l 5,4,-1
 417.64 357.317 l 5,5,-1
 0.818359 124.532 l 5,0,-1
EndSplineSet
EndChar

StartChar: question
Encoding: 63 63 34
Width: 517
Flags: W
HStem: 675.5 86.5<193.877 378.217>
VStem: 183.56 113.24<21.9602 97.9713> 193.12 89.56<215 320.434> 350.02 91.07<515.721 708.642>
LayerCount: 2
Fore
SplineSet
136.996 692.923 m 1,0,1
 198.183 762 198.183 762 254.96 762 c 0,2,3
 441.09 762 441.09 762 441.09 565 c 0,4,5
 441.09 527.093 441.09 527.093 424.669 491.221 c 128,-1,6
 408.248 455.347 408.248 455.347 370.371 410.763 c 2,7,-1
 332.99 366.763 l 2,8,9
 299.981 327.91 299.981 327.91 288.084 306.832 c 0,10,11
 282.68 297.257 282.68 297.257 282.68 220 c 2,12,-1
 282.68 215 l 1,13,-1
 193.12 215 l 1,14,-1
 193.12 220 l 2,15,16
 193.12 311.353 193.12 311.353 207.762 340.593 c 0,17,18
 233.168 391.33 233.168 391.33 254.642 414.91 c 2,19,-1
 296.075 460.408 l 1,20,-1
 312.574 477.074 l 2,21,22
 350.02 514.899 350.02 514.899 350.02 565.026 c 0,23,24
 350.02 675.5 350.02 675.5 256.03 675.5 c 0,25,26
 208.22 675.5 208.22 675.5 143.823 606.586 c 2,27,-1
 135.197 597.355 l 1,28,-1
 136.996 692.923 l 1,0,1
183.56 59.5001 m 128,-1,30
 183.56 89.0933 183.56 89.0933 201.074 106.315 c 128,-1,31
 218.551 123.5 218.551 123.5 240.18 123.5 c 128,-1,32
 261.706 123.5 261.706 123.5 279.166 107.429 c 128,-1,33
 296.8 91.1983 296.8 91.1983 296.8 61.0001 c 128,-1,34
 296.8 30.9694 296.8 30.9694 279.367 13.0169 c 128,-1,35
 261.872 -4.99994 261.872 -4.99994 240.18 -4.99994 c 128,-1,36
 218.525 -4.99994 218.525 -4.99994 201.046 12.4629 c 128,-1,29
 183.56 29.9327 183.56 29.9327 183.56 59.5001 c 128,-1,30
EndSplineSet
EndChar

StartChar: at
Encoding: 64 64 35
Width: 855
Flags: W
HStem: 13 79<383.033 520.164> 166.719 79.8353<589.011 696.373> 192.5 76.5<402.38 484.031> 470.5 74<387.029 483.849> 633 82<389.575 530.546>
VStem: 132.75 78.53<242.125 497.816> 289.39 74.98<324.376 410.668> 522.58 74.96<307.076 419.073 518.651 540> 713.03 73.1899<295.618 469.177>
LayerCount: 2
Fore
SplineSet
436.229 92 m 1,0,-1
 499.98 92 l 1,1,2
 526.835 92 526.835 92 556.24 104.702 c 128,-1,3
 585.645 117.403 585.645 117.403 599.352 127.016 c 2,4,-1
 623.216 143.752 l 1,5,-1
 676.476 89.1271 l 1,6,-1
 629.413 57.2311 l 2,7,8
 585.304 27.3369 585.304 27.3369 536.136 20.1684 c 128,-1,9
 486.968 13 486.968 13 434.253 13 c 128,-1,10
 381.539 13 381.539 13 329.907 33.8642 c 0,11,12
 238.336 70.8668 238.336 70.8668 185.543 160.376 c 128,-1,13
 132.75 249.884 132.75 249.884 132.75 350 c 0,14,15
 132.75 490.723 132.75 490.723 208.493 592.977 c 0,16,17
 249.212 647.949 249.212 647.949 320.645 681.474 c 128,-1,18
 392.078 715 392.078 715 460.691 715 c 128,-1,19
 529.305 715 529.305 715 591.353 693.469 c 128,-1,20
 653.401 671.938 653.401 671.938 696.153 629.904 c 128,-1,21
 738.905 587.87 738.905 587.87 762.562 518.348 c 128,-1,22
 786.22 448.825 786.22 448.825 786.22 380.987 c 128,-1,23
 786.22 313.148 786.22 313.148 774.091 278.042 c 128,-1,24
 761.962 242.936 761.962 242.936 723.472 204.827 c 128,-1,25
 684.982 166.719 684.982 166.719 624.486 166.719 c 0,26,27
 597.418 166.719 597.418 166.719 569.468 178.707 c 128,-1,28
 541.518 190.695 541.518 190.695 526.799 218.037 c 1,29,30
 495.14 192.5 495.14 192.5 454.81 192.5 c 128,-1,31
 414.479 192.5 414.479 192.5 377.664 207.235 c 128,-1,32
 340.85 221.97 340.85 221.97 315.062 263.88 c 128,-1,33
 289.39 305.6 289.39 305.6 289.39 356.724 c 0,34,35
 289.39 456.406 289.39 456.406 337.191 500.453 c 128,-1,36
 384.993 544.5 384.993 544.5 449.7 544.5 c 0,37,38
 495.514 544.5 495.514 544.5 522.58 518.651 c 1,39,-1
 522.58 540 l 1,40,-1
 597.54 540 l 1,41,-1
 597.54 467 l 2,42,-1
 597.54 292.095 l 1,43,44
 597.54 246.554 597.54 246.554 640.511 246.554 c 128,-1,45
 683.482 246.554 683.482 246.554 683.482 268.702 c 0,46,47
 683.482 271.009 683.482 271.009 707.548 304.701 c 0,48,49
 713.03 312.376 713.03 312.376 713.03 367 c 0,50,51
 713.03 493.01 713.03 493.01 643.181 567.582 c 0,52,53
 613.771 598.98 613.771 598.98 564.026 615.99 c 128,-1,54
 514.28 633 514.28 633 460.061 633 c 128,-1,55
 405.841 633 405.841 633 348.959 607.439 c 128,-1,56
 292.155 581.913 292.155 581.913 262.915 539.175 c 0,57,58
 211.28 463.705 211.28 463.705 211.28 350 c 0,59,60
 211.28 267.02 211.28 267.02 271.302 183.93 c 0,61,62
 304.559 137.892 304.559 137.892 349.934 114.946 c 128,-1,63
 395.309 92 395.309 92 436.229 92 c 1,0,-1
456.393 470.5 m 0,64,65
 403.036 470.5 403.036 470.5 378.344 425.932 c 0,66,67
 364.37 400.711 364.37 400.711 364.37 367.522 c 128,-1,68
 364.37 334.333 364.37 334.333 378.289 310.159 c 0,69,70
 401.987 269 401.987 269 456.38 269 c 0,71,72
 477.65 269 477.65 269 497.802 286.494 c 128,-1,73
 517.953 303.988 517.953 303.988 520.042 321.152 c 128,-1,74
 522.13 338.316 522.13 338.316 522.13 370.411 c 128,-1,75
 522.13 402.506 522.13 402.506 520.875 408.022 c 0,76,77
 514.741 434.993 514.741 434.993 496.127 452.747 c 128,-1,78
 477.513 470.5 477.513 470.5 456.393 470.5 c 0,64,65
EndSplineSet
EndChar

StartChar: A
Encoding: 65 65 36
Width: 636
Flags: MW
HStem: 175 91<244.44 423.33 244.44 457.15 212.4 423.33>
LayerCount: 2
Fore
SplineSet
329.762 744.925 m 1,0,-1
 625.587 -5 l 1,1,-1
 538.731 -5 l 1,2,-1
 463.851 170 l 1,3,-1
 205.902 170 l 1,4,-1
 142.242 -5 l 1,5,-1
 48.545 -5 l 1,6,-1
 329.762 744.925 l 1,0,-1
426.101 271 m 1,7,-1
 330.917 523.438 l 1,8,-1
 241.515 271 l 1,9,-1
 426.101 271 l 1,7,-1
EndSplineSet
EndChar

StartChar: B
Encoding: 66 66 37
Width: 422
Flags: W
HStem: -5 89<129 336.8> 320 94.91<131 220 220 263> 610 82<131 180 180 286.4>
VStem: 39.5098 91.4902<84 320 414.91 611> 263 91.04<385.646 639.263> 311 91.99<48.75 354.25>
LayerCount: 2
Fore
SplineSet
185.18 692 m 2,0,1
 354.04 692 354.04 692 354.04 510 c 0,2,3
 354.04 405.562 354.04 405.562 301.761 385.627 c 1,4,5
 402.99 366.768 402.99 366.768 402.99 200.5 c 0,6,7
 402.99 -5 402.99 -5 225.54 -5 c 2,8,-1
 39.5098 -5 l 1,9,-1
 39.5098 692 l 1,10,-1
 185.18 692 l 2,0,1
131 611 m 1,11,-1
 131 414.91 l 1,12,-1
 185 414.91 l 2,13,14
 263 414.91 263 414.91 263 512.455 c 128,-1,15
 263 610 263 610 185 610 c 2,16,-1
 180 610 l 1,17,-1
 180 611 l 1,18,-1
 131 611 l 1,11,-1
129 320 m 1,19,-1
 129 84 l 1,20,-1
 225 84 l 2,21,22
 311 84 311 84 311 201.5 c 128,-1,23
 311 319 311 319 225 319 c 2,24,-1
 220 319 l 1,25,-1
 220 320 l 1,26,-1
 129 320 l 1,19,-1
EndSplineSet
EndChar

StartChar: C
Encoding: 67 67 38
Width: 564
Flags: MW
HStem: -10.27 78.13 628.75 77.78
VStem: 48.02 89.65
LayerCount: 2
Fore
SplineSet
562.675 86.7422 m 1,0,1
 473.285 -15.2695 473.285 -15.2695 342.26 -15.2695 c 0,2,3
 247.871 -15.2695 247.871 -15.2695 180.902 38.7014 c 128,-1,4
 113.932 92.6723 113.932 92.6723 73.9762 171.939 c 128,-1,5
 34.0205 251.206 34.0205 251.206 34.0205 350.228 c 128,-1,6
 34.0205 449.25 34.0205 449.25 72.6427 530.703 c 128,-1,7
 111.265 612.155 111.265 612.155 177.216 655.683 c 0,8,9
 261.831 711.53 261.831 711.53 354.51 711.53 c 2,10,-1
 355.62 711.53 l 1,11,12
 467.13 711.53 467.13 711.53 554.785 622.57 c 1,13,-1
 489.045 552.223 l 1,14,15
 442.782 621.404 442.782 621.404 349.772 621.404 c 128,-1,16
 256.762 621.404 256.762 621.404 194.216 541.015 c 128,-1,17
 131.67 460.627 131.67 460.627 131.67 345.691 c 128,-1,18
 131.67 230.756 131.67 230.756 196.062 152.808 c 128,-1,19
 260.455 74.8604 260.455 74.8604 347.27 74.8604 c 0,20,21
 451.11 74.8604 451.11 74.8604 504.614 152.88 c 1,22,-1
 562.675 86.7422 l 1,0,1
EndSplineSet
EndChar

StartChar: D
Encoding: 68 68 39
Width: 525
Flags: MW
HStem: 0 86.66<133.87 321.702> 613.34 78.66
VStem: 77.92 74.94 426.58 78.32
LayerCount: 2
Fore
SplineSet
497.271 366.738 m 0,0,1
 497.271 -4.99999 497.271 -4.99999 261.72 -4.99999 c 1,2,-1
 42.78 -4.99999 l 1,3,-1
 37.78 -4.99999 l 1,4,-1
 37.78 694 l 1,5,-1
 264.401 694 l 1,6,7
 497.271 694 497.271 694 497.271 366.738 c 0,0,1
256.832 88.6591 m 0,8,9
 397.642 88.6591 397.642 88.6591 397.642 346.827 c 128,-1,10
 397.642 604.994 397.642 604.994 256.911 605.34 c 0,11,12
 250.822 605.355 250.822 605.355 197.424 605.391 c 128,-1,13
 144.027 605.427 144.027 605.427 133.87 605.427 c 1,14,-1
 133.87 88.4366 l 1,15,16
 150.318 88.5479 150.318 88.5479 181.294 88.6035 c 128,-1,17
 212.271 88.6591 212.271 88.6591 256.832 88.6591 c 0,8,9
EndSplineSet
EndChar

StartChar: E
Encoding: 69 69 40
Width: 399
Flags: W
HStem: -5 92<132.49 380.37> 324 90.91<132.49 302.94> 603 95<132.49 372.35>
VStem: 39.61 92.88<87 324 414.91 603>
LayerCount: 2
Fore
SplineSet
39.61 698 m 1,0,-1
 372.35 698 l 1,1,-1
 372.35 603 l 1,2,-1
 132.49 603 l 1,3,-1
 132.49 414.91 l 1,4,-1
 302.94 414.91 l 1,5,-1
 302.94 324 l 1,6,-1
 132.49 324 l 1,7,-1
 132.49 87 l 1,8,-1
 380.37 87 l 1,9,-1
 380.37 -5 l 1,10,-1
 39.61 -5 l 1,11,-1
 39.61 698 l 1,0,-1
EndSplineSet
EndChar

StartChar: F
Encoding: 70 70 41
Width: 396
Flags: W
HStem: -5 21G<40.42 133.18> 324 90.91<133.18 303.73> 604 92<133.18 361.58>
VStem: 40.42 92.76<-5 324 414.91 604>
LayerCount: 2
Fore
SplineSet
40.42 696 m 1,0,-1
 361.58 696 l 1,1,-1
 361.58 604 l 1,2,-1
 133.18 604 l 1,3,-1
 133.18 414.91 l 1,4,-1
 303.73 414.91 l 1,5,-1
 303.73 324 l 1,6,-1
 133.18 324 l 1,7,-1
 133.18 -5 l 1,8,-1
 40.42 -5 l 1,9,-1
 40.42 696 l 1,0,-1
EndSplineSet
EndChar

StartChar: G
Encoding: 71 71 42
Width: 603
Flags: MW
HStem: -5.46 83.46 279.5 88.73 633.2 82.92
VStem: 26.99 93.01 510.4 92.53
LayerCount: 2
Fore
SplineSet
372.41 370.23 m 1,0,-1
 585.93 370.23 l 1,1,-1
 585.93 107.167 l 1,2,3
 485.048 -13.4629 485.048 -13.4629 335.245 -13.4629 c 0,4,5
 219.476 -13.4629 219.476 -13.4629 104.279 114.66 c 0,6,7
 27.9902 199.509 27.9902 199.509 27.9902 353.711 c 128,-1,8
 27.9902 507.914 27.9902 507.914 102.913 593.239 c 0,9,10
 212.569 718.12 212.569 718.12 359.08 718.12 c 0,11,12
 471.535 718.12 471.535 718.12 552.84 640.13 c 1,13,-1
 552.84 635.24 l 1,14,-1
 487.799 569.7 l 1,15,16
 442.573 625.2 442.573 625.2 362.895 625.2 c 1,17,-1
 361.121 625.2 l 2,18,19
 255.388 625.2 255.388 625.2 179.739 539.681 c 0,20,21
 128 481.192 128 481.192 128 354.998 c 2,22,-1
 128 354.167 l 2,23,24
 128 244.63 128 244.63 181.951 175.064 c 0,25,26
 255.681 79.9942 255.681 79.9942 335.324 79.9942 c 2,27,-1
 338.857 79.9942 l 2,28,29
 430.966 79.9942 430.966 79.9942 483.4 138.937 c 1,30,-1
 483.4 271.5 l 1,31,-1
 372.052 271.5 l 1,32,-1
 372.41 370.23 l 1,0,-1
EndSplineSet
EndChar

StartChar: H
Encoding: 72 72 43
Width: 539
Flags: W
HStem: -5 21G<39.2695 130.04 391.74 483.73> 306 93<130.04 389.74> 681 20G<389.74 483.73>
VStem: 39.2695 90.7705<-5 306 399 695> 389.74 93.99<-5 306 399 701>
LayerCount: 2
Fore
SplineSet
389.74 701 m 1,0,-1
 483.73 701 l 1,1,-1
 483.73 -5 l 1,2,-1
 391.74 -5 l 1,3,-1
 391.74 306 l 1,4,-1
 130.04 306 l 1,5,-1
 130.04 -5 l 1,6,-1
 39.2695 -5 l 1,7,-1
 39.2695 695 l 1,8,-1
 127.15 695 l 1,9,-1
 127.15 688 l 1,10,-1
 129.15 690 l 1,11,-1
 129.15 399 l 1,12,-1
 389.74 399 l 1,13,-1
 389.74 701 l 1,0,-1
EndSplineSet
EndChar

StartChar: I
Encoding: 73 73 44
Width: 164
Flags: MW
HStem: 0 21G<44.84 125.05 44.84 44.84> 676 20G<44.95 125.05 125.05 125.05>
VStem: 44.95 80.1
LayerCount: 2
Fore
SplineSet
82.9512 701 m 1,0,-1
 130.05 701 l 1,1,-1
 130.05 -5 l 1,2,-1
 36.9473 -5 l 1,3,-1
 36.9473 701 l 1,4,-1
 82.9512 701 l 1,0,-1
EndSplineSet
EndChar

StartChar: J
Encoding: 74 74 45
Width: 321
Flags: W
HStem: 685 20G<198.2 291.19>
VStem: 198.2 92.99<64.8344 705>
LayerCount: 2
Fore
SplineSet
19.5905 75.7646 m 2,0,1
 58.6204 41.6497 58.6204 41.6497 83.6777 49 c 2,2,3
 104.173 40.4406 104.173 40.4406 143.926 66.6732 c 0,4,5
 198.2 102.488 198.2 102.488 198.2 228 c 2,6,-1
 198.2 705 l 1,7,-1
 291.19 705 l 1,8,-1
 291.19 222 l 2,9,10
 291.19 56.8657 291.19 56.8657 232.094 8.76465 c 0,11,12
 181.074 -30.9024 181.074 -30.9024 160.574 -37.4531 c 0,13,14
 126.062 -49.4814 126.062 -49.4814 97.5944 -48.4817 c 0,15,16
 48.1079 -48.4817 48.1079 -48.4817 11.2096 -16.3576 c 1,17,-1
 11.2096 83.0901 l 1,18,-1
 19.5905 75.7646 l 2,0,1
EndSplineSet
EndChar

StartChar: K
Encoding: 75 75 46
Width: 523
Flags: W
HStem: -5 21G<39.59 131.36 402.707 514.998> 671 20G<39.59 130.36 351.947 461.045>
VStem: 39.59 91.77<-5 323.108 396.943 691> 351.947 109.098<581.902 691> 402.707 112.291<-5 107.291>
LayerCount: 2
Fore
SplineSet
351.947 691 m 1,0,-1
 461.045 691 l 1,1,-1
 212.954 362.134 l 1,2,-1
 514.998 -5 l 1,3,-1
 402.707 -5 l 1,4,-1
 131.36 323.108 l 1,5,-1
 131.36 -5 l 1,6,-1
 39.59 -5 l 1,7,-1
 39.59 691 l 1,8,-1
 130.36 691 l 1,9,-1
 130.36 396.943 l 1,10,-1
 351.947 691 l 1,0,-1
EndSplineSet
EndChar

StartChar: L
Encoding: 76 76 47
Width: 384
Flags: W
HStem: -5 90<125.45 377.32>
VStem: 32.68 92.77<85 694.94>
LayerCount: 2
Fore
SplineSet
125.45 85 m 1,0,-1
 377.32 85 l 1,1,-1
 377.32 -5 l 1,2,-1
 32.68 -5 l 1,3,-1
 32.68 694.94 l 1,4,-1
 125.45 694.94 l 1,5,-1
 125.45 85 l 1,0,-1
EndSplineSet
EndChar

StartChar: M
Encoding: 77 77 48
Width: 631
Flags: MW
VStem: 97.28 87.22 549.4 86.33
LayerCount: 2
Fore
SplineSet
311.713 347.756 m 1,0,-1
 580.32 745.612 l 1,1,-1
 580.32 -4.99997 l 1,2,-1
 481.79 -4.99997 l 1,3,-1
 481.79 439.022 l 1,4,-1
 311.802 181.175 l 1,5,-1
 133.45 442.533 l 1,6,-1
 133.45 -5 l 1,7,-1
 39.58 -5 l 1,8,-1
 39.58 749.559 l 1,9,-1
 311.713 347.756 l 1,0,-1
EndSplineSet
EndChar

StartChar: N
Encoding: 78 78 49
Width: 564
Flags: W
HStem: -5 21G<39.65 132.08> 681 20G<434.03 528.35>
VStem: 39.65 92.43<-5 442.576> 434.03 94.32<221.632 701>
LayerCount: 2
Fore
SplineSet
132.08 442.576 m 1,0,-1
 132.08 -5 l 1,1,-1
 39.65 -5 l 1,2,-1
 39.65 717.622 l 1,3,-1
 434.03 221.632 l 1,4,-1
 434.03 701 l 1,5,-1
 528.35 701 l 1,6,-1
 528.35 -47.4241 l 1,7,-1
 132.08 442.576 l 1,0,-1
EndSplineSet
EndChar

StartChar: O
Encoding: 79 79 50
Width: 702
Flags: W
HStem: -17.6504 80.8691<278.119 412.442> 636.902 76.748<265.523 405.402>
VStem: 46.9502 82.7285<280.458 419.687> 567.291 86.2588<281.279 421.996>
LayerCount: 2
Fore
SplineSet
433.09 608.817 m 128,-1,1
 388.075 631.902 388.075 631.902 335.464 631.902 c 0,2,3
 283.112 631.902 283.112 631.902 244.612 607.958 c 128,-1,4
 205.949 583.914 205.949 583.914 182.661 544.518 c 0,5,6
 159.119 504.691 159.119 504.691 146.923 453.961 c 0,7,8
 134.679 403.027 134.679 403.027 134.679 350.06 c 128,-1,9
 134.679 297.193 134.679 297.193 149.43 245.839 c 128,-1,10
 164.162 194.551 164.162 194.551 189.39 155.227 c 0,11,12
 214.362 116.304 214.362 116.304 254.774 92.2087 c 128,-1,13
 295.008 68.2188 295.008 68.2188 345.286 68.2188 c 128,-1,14
 395.614 68.2188 395.614 68.2188 438.027 92.2637 c 128,-1,15
 480.552 116.372 480.552 116.372 506.776 155.817 c 0,16,17
 533.241 195.624 533.241 195.624 547.751 246.872 c 128,-1,18
 562.291 298.225 562.291 298.225 562.291 351.641 c 128,-1,19
 562.291 405.015 562.291 405.015 547.336 455.82 c 128,-1,20
 532.409 506.531 532.409 506.531 505.105 546.333 c 0,21,0
 478.062 585.754 478.062 585.754 433.09 608.817 c 128,-1,1
340.54 718.65 m 128,-1,23
 415.152 718.65 415.152 718.65 477.969 686.159 c 128,-1,24
 540.738 653.693 540.738 653.693 579.423 601.258 c 0,25,26
 617.934 549.061 617.934 549.061 638.253 482.326 c 128,-1,27
 658.55 415.664 658.55 415.664 658.55 346.45 c 128,-1,28
 658.55 277.208 658.55 277.208 637.811 211.054 c 128,-1,29
 617.067 144.883 617.067 144.883 578.996 93.2043 c 0,30,31
 540.742 41.2783 540.742 41.2783 479.266 9.32334 c 128,-1,32
 417.754 -22.6504 417.754 -22.6504 343.86 -22.6504 c 128,-1,33
 270.164 -22.6504 270.164 -22.6504 211.214 9.366 c 128,-1,34
 152.324 41.3494 152.324 41.3494 116.23 93.8469 c 0,35,36
 80.3635 146.013 80.3635 146.013 61.1485 212.196 c 128,-1,37
 41.9502 278.321 41.9502 278.321 41.9502 348 c 128,-1,38
 41.9502 417.684 41.9502 417.684 60.7095 483.785 c 128,-1,39
 79.4942 549.976 79.4942 549.976 114.914 602.129 c 0,40,41
 150.551 654.603 150.551 654.603 208.159 686.604 c 128,-1,22
 265.848 718.65 265.848 718.65 340.54 718.65 c 128,-1,23
EndSplineSet
EndChar

StartChar: P
Encoding: 80 80 51
Width: 406
Flags: W
HStem: 0 21G<40.08 130.96> 299 91<130.96 237.872> 604 93<130.69 243.945>
VStem: 40.08 90.88<0 299 390 604> 288.36 80.06<431.312 566.577>
LayerCount: 2
Fore
SplineSet
190.31 697 m 2,0,1
 247.037 697 247.037 697 289.253 668.127 c 128,-1,2
 331.411 639.293 331.411 639.293 349.916 595.138 c 128,-1,3
 368.42 550.982 368.42 550.982 368.42 499 c 128,-1,4
 368.42 446.932 368.42 446.932 348.549 402.29 c 128,-1,5
 328.679 357.649 328.679 357.649 285.225 328.354 c 128,-1,6
 241.683 299 241.683 299 181.41 299 c 2,7,-1
 130.96 299 l 1,8,-1
 130.96 0 l 1,9,-1
 40.08 0 l 1,10,-1
 40.08 697 l 1,11,-1
 190.31 697 l 2,0,1
130.69 604 m 1,12,-1
 130.69 390 l 1,13,-1
 205 390 l 2,14,15
 230.286 390 230.286 390 249.404 405.549 c 0,16,17
 288.36 437.234 288.36 437.234 288.36 496 c 0,18,19
 288.36 559.322 288.36 559.322 254.6 588.2 c 0,20,21
 236.13 604 236.13 604 210.08 604 c 2,22,-1
 130.69 604 l 1,12,-1
EndSplineSet
EndChar

StartChar: Q
Encoding: 81 81 52
Width: 693
Flags: MW
HStem: -18.28 85.3 626.42 85.26
VStem: 58.45 73.23 612.11 73.27
LayerCount: 2
Fore
SplineSet
629.123 539.595 m 128,-1,1
 671.86 454.087 671.86 454.087 671.86 353.68 c 0,2,3
 671.86 222.682 671.86 222.682 600.943 120.921 c 1,4,-1
 659.29 45.5228 l 1,5,-1
 583.439 -27.5133 l 1,6,-1
 529.324 44.7983 l 1,7,8
 449.027 -17.83 449.027 -17.83 357.034 -17.83 c 128,-1,9
 265.04 -17.83 265.04 -17.83 191.275 32.1597 c 128,-1,10
 117.51 82.1494 117.51 82.1494 74.735 167.715 c 128,-1,11
 31.96 253.28 31.96 253.28 31.96 353.68 c 128,-1,12
 31.96 454.085 31.96 454.085 74.7325 539.66 c 128,-1,13
 117.505 625.235 117.505 625.235 191.264 675.232 c 128,-1,14
 265.022 725.23 265.022 725.23 351.893 725.23 c 128,-1,15
 438.791 725.23 438.791 725.23 512.555 675.234 c 128,-1,0
 586.318 625.238 586.318 625.238 629.123 539.595 c 128,-1,1
351.91 626.88 m 128,-1,17
 255.134 626.88 255.134 626.88 186.652 547.133 c 128,-1,18
 118.17 467.387 118.17 467.387 118.17 353.713 c 128,-1,19
 118.17 239.983 118.17 239.983 186.643 160.277 c 128,-1,20
 255.117 80.57 255.117 80.57 351.91 80.57 c 0,21,22
 417.771 80.57 417.771 80.57 473.153 119.95 c 1,23,-1
 409.179 204.497 l 1,24,-1
 483.266 274.224 l 1,25,-1
 542.894 195.965 l 1,26,27
 585.62 266.161 585.62 266.161 585.62 353.66 c 0,28,29
 585.62 467.391 585.62 467.391 517.164 547.135 c 128,-1,16
 448.709 626.88 448.709 626.88 351.91 626.88 c 128,-1,17
EndSplineSet
EndChar

StartChar: R
Encoding: 82 82 53
Width: 442
Flags: MW
HStem: 0 21G<47.79 122 47.79 47.79 356.98 441.88 356.98 356.98> 313 81<129.74 218.315> 618 83<123.74 123.74 123.74 203.35 203.35 217.13>
VStem: 65.79 90.21
LayerCount: 2
Fore
SplineSet
203.35 706 m 2,0,1
 250.885 706 250.885 706 288.477 685.91 c 0,2,3
 357.979 648.764 357.979 648.764 376.907 557.01 c 0,4,5
 382.033 532.161 382.033 532.161 382.033 511.674 c 128,-1,6
 382.033 491.186 382.033 491.186 377.867 462.771 c 128,-1,7
 373.702 434.357 373.702 434.357 353.268 397.922 c 128,-1,8
 332.833 361.486 332.833 361.486 302.109 339.247 c 1,9,-1
 449.459 -5 l 1,10,-1
 353.695 -5 l 1,11,-1
 218.315 308 l 1,12,-1
 128 308 l 1,13,-1
 128 -5 l 1,14,-1
 43.1224 -5 l 1,15,-1
 43.1224 706 l 1,16,-1
 203.35 706 l 2,0,1
129.74 613 m 1,17,-1
 129.74 399 l 1,18,-1
 212.9 399 l 1,19,20
 237.346 399 237.346 399 256.658 414.91 c 0,21,22
 295.84 447.189 295.84 447.189 295.84 507.916 c 0,23,24
 295.84 567.954 295.84 567.954 261.65 597.2 c 0,25,26
 243.18 613 243.18 613 217.13 613 c 2,27,-1
 129.74 613 l 1,17,-1
EndSplineSet
EndChar

StartChar: S
Encoding: 83 83 54
Width: 372
Flags: MW
HStem: -10.01 83.48 650.46 78.24
VStem: 49.74 80.71 324.44 86.65
LayerCount: 2
Fore
SplineSet
95.0496 423.422 m 2,0,1
 46.2306 484.295 46.2306 484.295 46.2306 558.58 c 128,-1,2
 46.2306 632.864 46.2306 632.864 103.922 683.577 c 128,-1,3
 161.613 734.291 161.613 734.291 236.724 734.291 c 128,-1,4
 311.835 734.291 311.835 734.291 335.584 705.403 c 1,5,-1
 335.584 605.159 l 1,6,-1
 332.352 615.389 l 2,7,8
 304.046 642.95 304.046 642.95 254.459 642.95 c 128,-1,9
 204.872 642.95 204.872 642.95 176.906 616.921 c 128,-1,10
 148.94 590.891 148.94 590.891 148.94 557.711 c 128,-1,11
 148.94 524.533 148.94 524.533 177.877 488.332 c 2,12,-1
 302.736 332.132 l 2,13,14
 357.582 263.519 357.582 263.519 357.582 197.504 c 0,15,16
 357.582 106.386 357.582 106.386 305.932 45.9851 c 128,-1,17
 254.281 -14.4157 254.281 -14.4157 166.094 -14.4157 c 128,-1,18
 77.9079 -14.4157 77.9079 -14.4157 15.3975 36.1328 c 1,19,-1
 15.3975 159.974 l 1,20,-1
 25.5557 149.586 l 2,21,22
 91.6896 81.9598 91.6896 81.9598 145.524 81.9598 c 128,-1,23
 199.359 81.9598 199.359 81.9598 224.145 112.183 c 128,-1,24
 248.931 142.406 248.931 142.406 248.931 186.972 c 128,-1,25
 248.931 231.538 248.931 231.538 223.12 263.723 c 2,26,-1
 95.0496 423.422 l 2,0,1
EndSplineSet
EndChar

StartChar: T
Encoding: 84 84 55
Width: 463
Flags: MW
HStem: 0 21G<204.39 290.83 204.39 212.06 212.06 212.06> 605 81<41.19 212.06 41.19 448.81>
VStem: 199.06 92.77<-5 600>
LayerCount: 2
Fore
SplineSet
205.06 600 m 1,0,-1
 36.19 600 l 1,1,-1
 36.19 691 l 1,2,-1
 453.81 691 l 1,3,-1
 453.81 601 l 1,4,-1
 297.83 601 l 1,5,-1
 297.83 -5 l 1,6,-1
 205.06 -5 l 1,7,-1
 205.06 600 l 1,0,-1
EndSplineSet
EndChar

StartChar: U
Encoding: 85 85 56
Width: 457
Flags: MW
HStem: -14.5 102<188.08 248.815 188.08 277.81>
VStem: 57.57 102.77 383.44 103.99
LayerCount: 2
Fore
SplineSet
132.33 238 m 2,0,1
 132.33 78.4937 132.33 78.4937 218.89 78.4937 c 128,-1,2
 305.45 78.4937 305.45 78.4937 305.45 242 c 1,3,-1
 305.45 681 l 1,4,-1
 399.43 681 l 1,5,-1
 399.43 237 l 2,6,7
 399.43 -22.25 399.43 -22.25 218.215 -22.25 c 0,8,9
 39.57 -22.25 39.57 -22.25 39.57 236 c 2,10,-1
 39.57 683 l 1,11,-1
 132.33 683 l 1,12,-1
 132.33 238 l 2,0,1
EndSplineSet
EndChar

StartChar: V
Encoding: 86 86 57
Width: 573
Flags: W
HStem: 665 20G<487.05 580.057>
VStem: -4.92654 92.5481<593.362 685.91> 487.05 93.007<591.993 685>
LayerCount: 2
Fore
SplineSet
487.05 685 m 1,0,-1
 580.057 685 l 1,1,-1
 280.637 -60.4463 l 1,2,-1
 -4.92654 685.91 l 1,3,-1
 87.6216 685.91 l 1,4,-1
 281.959 197.754 l 1,5,-1
 487.05 685 l 1,0,-1
EndSplineSet
EndChar

StartChar: W
Encoding: 87 87 58
Width: 796
Flags: W
VStem: 64.693 93.336<677.171 686.62 593.284 686.62> 710.888 89.437<677.073 686.47 597.033 686.47>
LayerCount: 2
Fore
SplineSet
436.387 349.399 m 1,0,-1
 287.289 -37.8348 l 1,1,-1
 64.693 686.62 l 1,2,-1
 158.029 686.62 l 1,3,-1
 299.938 239.652 l 1,4,-1
 418.428 546.865 l 1,5,-1
 419.985 551.51 l 1,6,-1
 455.907 551.51 l 1,7,-1
 568.982 241.954 l 1,8,-1
 710.888 686.47 l 1,9,-1
 800.325 686.47 l 1,10,-1
 578.492 -36.2015 l 1,11,-1
 436.387 349.399 l 1,0,-1
EndSplineSet
EndChar

StartChar: X
Encoding: 88 88 59
Width: 531
Flags: MW
HStem: 0 21G<46.3617 132.263 46.3617 46.3617 468.523 556.948 468.523 468.523>
LayerCount: 2
Fore
SplineSet
522.255 -5 m 1,26,-1
 422.547 -5 l 1,1,-1
 252.344 308.441 l 1,3,-1
 92.324 -5 l 1,5,-1
 -4.81265 -5 l 1,8,-1
 197.194 389.891 l 1,10,-1
 29.8188 701 l 1,12,-1
 127.713 701 l 1,15,-1
 253.711 472.266 l 1,17,-1
 377.742 701 l 1,19,-1
 472.732 701 l 1,22,-1
 310.388 394.988 l 1,24,-1
 522.255 -5 l 1,26,-1
EndSplineSet
EndChar

StartChar: Y
Encoding: 89 89 60
Width: 552
Flags: MW
HStem: 0 21G<222.67 313.78 222.67 222.67>
VStem: 258.67 91.11
LayerCount: 2
Fore
SplineSet
-9.78073 701 m 1,0,-1
 85.8719 701 l 1,1,-1
 266.613 391.15 l 1,2,-1
 434.018 701 l 1,3,-1
 529.411 701 l 1,4,-1
 314.78 306.328 l 1,5,-1
 314.78 -5 l 1,6,-1
 221.67 -5 l 1,7,-1
 221.67 310.931 l 1,8,-1
 -9.78073 701 l 1,0,-1
EndSplineSet
EndChar

StartChar: Z
Encoding: 90 90 61
Width: 566
Flags: MW
HStem: 0 93 597 85<147.708 414.834>
LayerCount: 2
Fore
SplineSet
146.732 687 m 1,0,-1
 569.812 687 l 1,1,-1
 217.272 85 l 1,2,-1
 568.86 85 l 1,3,-1
 568.86 -5 l 1,4,-1
 48.0544 -5 l 1,5,-1
 414.834 603 l 1,6,-1
 147.708 603 l 1,7,-1
 146.732 687 l 1,0,-1
EndSplineSet
EndChar

StartChar: bracketleft
Encoding: 91 91 62
Width: 288
Flags: W
HStem: -5 90<129.98 249.68> 617 90<129.98 247.9>
VStem: 40.32 89.66<85 617> 40.32 209.36<-5 85 617 707>
LayerCount: 2
Fore
SplineSet
40.32 -5 m 1,0,-1
 40.32 707 l 1,1,-1
 247.9 707 l 1,2,-1
 247.9 617 l 1,3,-1
 129.98 617 l 1,4,-1
 129.98 85 l 1,5,-1
 249.68 85 l 1,6,-1
 249.68 -5 l 1,7,-1
 40.32 -5 l 1,0,-1
EndSplineSet
EndChar

StartChar: backslash
Encoding: 92 92 63
Width: 464
Flags: W
HStem: -5 21G<313.614 419.46> 687 20G<72.5988 172.126>
VStem: 72.5988 99.5272<607.473 707> 313.614 105.846<-5 100.846>
LayerCount: 2
Fore
SplineSet
313.614 -5 m 1,0,-1
 72.5988 707 l 1,1,-1
 172.126 707 l 1,2,-1
 419.46 -5 l 1,3,-1
 313.614 -5 l 1,0,-1
EndSplineSet
EndChar

StartChar: bracketright
Encoding: 93 93 64
Width: 285
Flags: W
HStem: -5 90<38.32 142.02> 617 90<40.1 142.02>
VStem: 38.32 209.36<-5 85 617 707> 142.02 105.66<85 617>
LayerCount: 2
Fore
SplineSet
247.68 -5 m 1,0,-1
 38.32 -5 l 1,1,-1
 38.32 85 l 1,2,-1
 142.02 85 l 1,3,-1
 142.02 617 l 1,4,-1
 40.1 617 l 1,5,-1
 40.1 707 l 1,6,-1
 247.68 707 l 1,7,-1
 247.68 -5 l 1,0,-1
EndSplineSet
EndChar

StartChar: asciicircum
Encoding: 94 94 65
Width: 571
Flags: W
HStem: 525 218.332<308.469 440.859>
VStem: 163.685 277.174<525 525>
LayerCount: 2
Fore
SplineSet
440.859 525 m 1,0,-1
 351.741 525 l 1,1,-1
 307.155 598.712 l 1,2,-1
 257.531 525 l 1,3,-1
 163.685 525 l 1,4,-1
 308.469 743.332 l 1,5,-1
 440.859 525 l 1,0,-1
EndSplineSet
EndChar

StartChar: underscore
Encoding: 95 95 66
Width: 488
Flags: W
HStem: -85 90<35.46 457.54>
LayerCount: 2
Fore
SplineSet
457.54 5 m 1,0,-1
 457.54 -85 l 1,1,-1
 35.46 -85 l 1,2,-1
 35.46 5 l 1,3,-1
 457.54 5 l 1,0,-1
EndSplineSet
EndChar

StartChar: grave
Encoding: 193 96 67
Width: 945
Flags: W
HStem: 787 205.996<465.067 545.679>
VStem: 403.345 193.256<837.815 911.342>
LayerCount: 2
Fore
SplineSet
465.067 992.996 m 1,0,-1
 596.601 837.815 l 1,1,-1
 545.679 787 l 1,2,-1
 403.345 911.342 l 1,3,-1
 465.067 992.996 l 1,0,-1
EndSplineSet
EndChar

StartChar: a
Encoding: 97 97 68
Width: 371
Flags: MW
HStem: -15.01 81.01 196.5 81<131.093 238.742>
VStem: 41.19 76.21 277.93 73.85
LayerCount: 2
Fore
SplineSet
325.628 346.096 m 0,0,1
 338.78 310.944 338.78 310.944 338.78 267.9 c 2,2,-1
 338.78 -5 l 1,3,-1
 250.93 -5 l 1,4,-1
 250.93 13.6611 l 1,5,6
 227.416 -15.0098 227.416 -15.0098 180.21 -15.0098 c 0,7,8
 27.21 -15.0098 27.21 -15.0098 27.21 129 c 0,9,10
 27.21 277.5 27.21 277.5 186.17 277.5 c 0,11,12
 231.593 277.5 231.593 277.5 254.471 249.074 c 1,13,14
 254.471 338.609 254.471 338.609 194.93 338.609 c 0,15,16
 148.335 338.609 148.335 338.609 118.695 319.185 c 1,17,-1
 80.1553 385.349 l 0,18,19
 158.455 426.5 158.455 426.5 213 426.5 c 0,20,21
 295.544 426.5 295.544 426.5 325.628 346.096 c 0,0,1
113.4 129.11 m 0,22,23
 113.4 71 113.4 71 184.31 71 c 128,-1,24
 255.22 71 255.22 71 255.22 131.122 c 128,-1,25
 255.22 191.245 255.22 191.245 184.31 191.245 c 128,-1,26
 113.4 191.245 113.4 191.245 113.4 129.11 c 0,22,23
EndSplineSet
EndChar

StartChar: b
Encoding: 98 98 69
Width: 396
Flags: MW
HStem: 12.58 19.75G 345.78 82.66
VStem: 96.34 78.45 351.37 81.36
LayerCount: 2
Fore
SplineSet
370.68 205.28 m 128,-1,1
 370.68 -15 370.68 -15 203.45 -15 c 0,2,3
 144.161 -15 144.161 -15 117.39 21.7864 c 1,4,-1
 117.39 -5 l 1,5,-1
 32.08 -5 l 1,6,-1
 32.08 753 l 5,7,-1
 125.85 753 l 1,8,-1
 125.85 391.49 l 1,9,10
 150.906 425.56 150.906 425.56 205.433 425.56 c 0,11,0
 370.68 425.56 370.68 425.56 370.68 205.28 c 128,-1,1
288.24 208.835 m 128,-1,13
 288.24 337.78 288.24 337.78 203.18 337.78 c 128,-1,14
 118.12 337.78 118.12 337.78 118.12 208.835 c 128,-1,15
 118.12 79.89 118.12 79.89 206.03 79.89 c 0,16,12
 288.24 79.89 288.24 79.89 288.24 208.835 c 128,-1,13
EndSplineSet
EndChar

StartChar: c
Encoding: 99 99 70
Width: 320
Flags: MW
HStem: -3.29 82.56<149.196 199.437> 345.84 80.57
VStem: 15.92 78.82
LayerCount: 2
Fore
SplineSet
199.638 84.1183 m 0,0,1
 252.406 84.1183 252.406 84.1183 278.469 110.171 c 1,2,-1
 319.305 37.3574 l 0,3,4
 265.538 -7.74097 265.538 -7.74097 189.863 -7.74097 c 128,-1,5
 114.187 -7.74097 114.187 -7.74097 62.5452 51.395 c 128,-1,6
 10.903 110.531 10.903 110.531 10.903 205.785 c 128,-1,7
 10.903 301.04 10.903 301.04 60.6684 366.202 c 128,-1,8
 110.434 431.365 110.434 431.365 193.598 431.365 c 132,-1,9
 276.762 431.365 276.762 431.365 320.78 379.503 c 1,10,-1
 278.359 306.022 l 1,11,12
 256.571 340.872 256.571 340.872 186.425 340.872 c 0,13,14
 156.705 340.872 156.705 340.872 128.219 302.651 c 128,-1,15
 99.7321 264.429 99.7321 264.429 99.7321 204.867 c 128,-1,16
 99.7321 145.305 99.7321 145.305 131.416 114.786 c 0,17,18
 162.24 85.096 162.24 85.096 188.466 84.2678 c 0,19,20
 193.2 84.1183 193.2 84.1183 199.638 84.1183 c 0,0,1
EndSplineSet
EndChar

StartChar: d
Encoding: 100 100 71
Width: 408
Flags: MW
HStem: -6.08 79.25 352.26 74.91
VStem: 16.01 73.21
LayerCount: 2
Fore
SplineSet
187.08 428.18 m 4,0,1
 258 428.18 258 428.18 276.37 387.579 c 1,2,-1
 276.37 753 l 1,3,-1
 368.14 753 l 1,4,-1
 368.14 -5 l 1,5,-1
 274.93 -5 l 1,6,-1
 274.93 28.6136 l 1,7,8
 252 -14.0801 252 -14.0801 177.62 -14.0801 c 0,9,10
 11.0098 -14.0801 11.0098 -14.0801 11.0098 207.12 c 128,-1,11
 11.0098 428.18 11.0098 428.18 187.08 428.18 c 4,0,1
94.21 205.87 m 0,12,13
 94.21 70.1797 94.21 70.1797 178.58 70.1797 c 0,14,15
 275.965 70.1797 275.965 70.1797 275.965 204.72 c 128,-1,16
 275.965 339.26 275.965 339.26 185.18 339.26 c 128,-1,17
 94.21 339.26 94.21 339.26 94.21 205.87 c 0,12,13
EndSplineSet
EndChar

StartChar: e
Encoding: 101 101 72
Width: 384
Flags: MW
HStem: -10.59 82.38 165.39 83.14 349.42 74.24
VStem: 18.11 343.78
LayerCount: 2
Fore
SplineSet
104.953 156.39 m 1,0,1
 112.158 128.526 112.158 128.526 133.751 100.852 c 128,-1,2
 155.345 73.1768 155.345 73.1768 206.017 73.1768 c 0,3,4
 262.614 73.1768 262.614 73.1768 291.089 107.447 c 1,5,-1
 343.5 55.9795 l 1,6,7
 294.953 -19.5898 294.953 -19.5898 198.24 -19.5898 c 0,8,9
 121.451 -19.5898 121.451 -19.5898 80.6641 25.125 c 128,-1,10
 39.877 69.8398 39.877 69.8398 26.4932 110.267 c 128,-1,11
 13.1104 150.694 13.1104 150.694 13.1104 207.94 c 0,12,13
 13.1104 313.747 13.1104 313.747 77.1885 381.866 c 0,14,15
 124.969 432.66 124.969 432.66 199.84 432.66 c 132,-1,16
 274.713 432.66 274.713 432.66 331.98 359.682 c 0,17,18
 370.345 310.792 370.345 310.792 370.345 207.732 c 0,19,20
 370.345 187.896 370.345 187.896 366.338 156.39 c 1,21,-1
 104.953 156.39 l 1,0,1
287.223 244.53 m 1,22,23
 269.432 340.42 269.432 340.42 200.741 341.42 c 0,24,25
 131.606 341.42 131.606 341.42 106.624 244.53 c 1,26,-1
 287.223 244.53 l 1,22,23
EndSplineSet
EndChar

StartChar: f
Encoding: 102 102 73
Width: 291
Flags: W
HStem: 0 21G<91.29 91.29 91.29 182.73> 346 78<46.79 91.29 46.79 94.84>
VStem: 91.29 91.44<-5 312 415 526.916> 94.84 89.66
LayerCount: 2
Fore
SplineSet
91.29 314 m 1,0,-1
 46.79 314 l 1,1,-1
 46.79 415 l 1,2,-1
 94.8574 415 l 1,3,4
 94.8574 647 94.8574 647 233.68 647 c 0,5,6
 273.941 647 273.941 647 282.719 637.847 c 1,7,-1
 261.312 540.097 l 1,8,-1
 243.019 550.985 l 1,9,10
 217.427 550.985 217.427 550.985 203.477 525.338 c 128,-1,11
 189.527 499.691 189.527 499.691 189.527 415 c 1,12,-1
 269.83 415 l 5,13,-1
 269.83 312 l 1,14,-1
 187.73 312 l 1,15,-1
 187.73 -5 l 1,16,-1
 91.29 -5 l 1,17,-1
 91.29 314 l 1,0,-1
EndSplineSet
EndChar

StartChar: g
Encoding: 103 103 74
Width: 411
Flags: MW
HStem: -217.589 85.5106 4.91116 85.49 337.519 88.6624
VStem: 44.9879 84.151<127.865 298.095> 301.571 85.8917<-89.259 37.3256>
LayerCount: 2
Fore
SplineSet
217.283 332.519 m 0,0,1
 131.139 332.519 131.139 332.519 131.139 213.961 c 128,-1,2
 131.139 95.4033 131.139 95.4033 212.355 95.4033 c 128,-1,3
 293.571 95.4033 293.571 95.4033 293.571 203.701 c 0,4,5
 293.571 332.519 293.571 332.519 217.283 332.519 c 0,0,1
80.9765 -66.2367 m 1,6,7
 179.854 -117 179.854 -117 207.12 -117 c 0,8,9
 296.46 -117 296.46 -117 296.46 -34 c 2,10,-1
 296.46 37.3256 l 1,11,12
 271.151 6 271.151 6 211.57 6 c 0,13,14
 44.9475 6 44.9475 6 44.9475 215.5 c 128,-1,15
 44.9475 425 44.9475 425 220.03 425 c 0,16,17
 259.465 425 259.465 425 293.79 375.905 c 1,18,-1
 293.79 408 l 1,19,-1
 387.45 408 l 1,20,-1
 387.45 0 l 2,21,22
 387.45 -111.462 387.45 -111.462 320.706 -167.82 c 0,23,24
 270.729 -210.02 270.729 -210.02 202.867 -210.02 c 128,-1,25
 135.005 -210.02 135.005 -210.02 95.6228 -180.059 c 2,26,-1
 45.0827 -145.777 l 1,27,-1
 80.9765 -66.2367 l 1,6,7
EndSplineSet
EndChar

StartChar: h
Encoding: 104 104 75
Width: 413
Flags: MW
HStem: 0 21G<72.34 162.33 72.34 72.34 322.11 415.66 322.11 322.11> 339 86
VStem: 70.34 91.99 322.11 97.55
LayerCount: 2
Fore
SplineSet
278.31 242.508 m 0,0,1
 278.31 345.004 278.31 345.004 203.32 345.004 c 128,-1,2
 128.33 345.004 128.33 345.004 128.33 239 c 2,3,-1
 128.33 -5 l 1,4,-1
 32.3398 -5 l 1,5,-1
 32.3398 753 l 1,6,-1
 130.11 753 l 1,7,-1
 130.11 393.555 l 1,8,9
 169.849 441 169.849 441 220.54 441 c 0,10,11
 378.66 441 378.66 441 378.66 269 c 2,12,-1
 378.66 -5 l 1,13,-1
 278.11 -5 l 1,14,-1
 278.11 0 l 1,15,16
 278.31 128.069 278.31 128.069 278.31 242.508 c 0,0,1
EndSplineSet
EndChar

StartChar: i
Encoding: 105 105 76
Width: 164
Flags: W
HStem: 0 21G<66.12 146.21 66.12 66.12>
VStem: 64.33 81.88
LayerCount: 2
Fore
SplineSet
29.7803 518 m 128,-1,1
 29.7803 544.167 29.7803 544.167 46.042 559.399 c 128,-1,2
 62.1641 574.5 62.1641 574.5 81.4873 574.5 c 128,-1,3
 100.723 574.5 100.723 574.5 116.977 560.389 c 128,-1,4
 133.23 546.278 133.23 546.278 133.23 519.5 c 128,-1,5
 133.23 492.921 133.23 492.921 117.07 476.961 c 128,-1,6
 100.91 461 100.91 461 81.5 461 c 130,-1,7
 62.1465 461 62.1465 461 46.0098 476.381 c 128,-1,0
 29.7803 491.851 29.7803 491.851 29.7803 518 c 128,-1,1
33.3203 414.91 m 1,8,-1
 124.21 414.91 l 1,9,-1
 124.21 -5 l 1,10,-1
 33.1299 -5 l 1,11,-1
 33.3203 414.91 l 1,8,-1
EndSplineSet
EndChar

StartChar: j
Encoding: 106 106 77
Width: 196
Flags: W
HStem: 402 20G<64.55 146.43 146.43 146.43>
VStem: 64.56 81.88<-121 427>
LayerCount: 2
Fore
SplineSet
74.0416 575.399 m 128,-1,1
 90.1609 590.5 90.1609 590.5 109.5 590.5 c 130,-1,2
 128.723 590.5 128.723 590.5 144.977 576.389 c 128,-1,3
 161.23 562.278 161.23 562.278 161.23 535.601 c 128,-1,4
 161.23 508.924 161.23 508.924 145.072 492.962 c 128,-1,5
 128.913 477 128.913 477 109.512 477 c 128,-1,6
 90.1465 477 90.1465 477 74.0102 492.381 c 128,-1,7
 57.78 507.851 57.78 507.851 57.78 534.008 c 128,-1,0
 57.78 560.165 57.78 560.165 74.0416 575.399 c 128,-1,1
59.55 427 m 1,8,-1
 151.43 427 l 1,9,-1
 151.43 -121 l 1,10,-1
 59.55 -121 l 1,11,-1
 59.55 427 l 1,8,-1
EndSplineSet
EndChar

StartChar: k
Encoding: 107 107 78
Width: 465
Flags: W
LayerCount: 2
Fore
SplineSet
161.26 251.321 m 1,0,0
 319.568 429 l 1,3,-1
 437.926 429 l 1,6,-1
 259.059 227.001 l 1,8,-1
 464.631 -5 l 1,10,-1
 346.256 -5 l 1,13,-1
 160.37 202.861 l 1,16,-1
 160.37 -5 l 1,18,-1
 68.49 -5 l 1,21,-1
 68.49 753 l 1,24,-1
 161.26 753 l 1,27,-1
 161.26 251.321 l 1,0,0
EndSplineSet
EndChar

StartChar: l
Encoding: 108 108 79
Width: 195
Flags: MW
HStem: 0 21G<45.3 125.7 45.3 45.3> 762 20G<45.3 125.7 125.7 125.7>
VStem: 60.3 87.41
LayerCount: 2
Fore
SplineSet
72.7002 -6 m 1,0,-1
 37.2998 -6 l 1,1,-1
 37.2998 787 l 1,2,-1
 130.7 787 l 1,3,-1
 130.7 -6 l 1,4,-1
 72.7002 -6 l 1,0,-1
EndSplineSet
EndChar

StartChar: m
Encoding: 109 109 80
Width: 596
Flags: W
HStem: 0 21G<33.53 116.85 259.05 343.8 483.54 564.43> 334 91<322.239 503.901> 340.5 81.5703<97.4283 279.93>
VStem: 33.53 83.3196<0 375.75 409.91 409.91> 259.05 84.75<0 367.3> 483.54 80.8896<0 364.553>
LayerCount: 2
Fore
SplineSet
311.751 364.158 m 1,43,44
 335.106 430 335.106 430 414.77 430 c 128,-1,1
 494.433 430 494.433 430 537.946 374.07 c 0,2,3
 569.43 333.603 569.43 333.603 569.43 223 c 2,4,-1
 569.43 -5 l 1,6,-1
 478.54 -5 l 1,9,-1
 478.54 223 l 2,11,12
 478.54 329 478.54 329 415.67 329 c 0,13,14
 348.8 329 348.8 329 348.8 223 c 2,15,-1
 348.8 -5 l 1,17,-1
 254.05 -5 l 1,20,-1
 254.05 223 l 2,22,23
 254.05 335.5 254.05 335.5 189.45 335.5 c 0,24,25
 121.85 335.5 121.85 335.5 121.85 223 c 2,26,-1
 121.85 -5 l 1,28,-1
 28.53 -5 l 1,31,-1
 28.53 414.91 l 1,34,-1
 123.63 414.91 l 1,37,-1
 123.63 396.471 l 1,39,40
 145.457 427.07 145.457 427.07 214.676 427.07 c 128,-1,42
 283.896 427.07 283.896 427.07 311.751 364.158 c 1,43,44
EndSplineSet
EndChar

StartChar: n
Encoding: 110 110 81
Width: 368
Flags: MW
HStem: 0 21G<24.52 115.58 24.52 24.52 257.17 346.14 257.17 257.17> 333.5 93.5<180.58 216.165>
VStem: 55.52 95.06 296.16 89.08
LayerCount: 2
Fore
SplineSet
252.17 226.06 m 2,0,1
 252.17 328.5 252.17 328.5 192.66 328.5 c 0,2,3
 111.58 328.5 111.58 328.5 111.58 226.06 c 2,4,-1
 111.58 -5 l 1,5,-1
 19.52 -5 l 1,6,-1
 19.52 414.91 l 1,7,-1
 108.62 414.91 l 1,8,-1
 108.62 384.069 l 1,9,10
 135.709 432 135.709 432 202.327 432 c 128,-1,11
 268.945 432 268.945 432 310.043 382.217 c 128,-1,12
 351.14 332.434 351.14 332.434 351.14 226.06 c 2,13,-1
 351.14 -5 l 1,14,-1
 252.17 -5 l 1,15,-1
 252.17 226.06 l 2,0,1
EndSplineSet
EndChar

StartChar: o
Encoding: 111 111 82
Width: 446
Flags: MW
HStem: -14.8319 81.804 353.378 81.5796
VStem: 17.9676 89.3214<127.434 290.027> 346.071 85.3536
LayerCount: 2
Fore
SplineSet
294.497 322.921 m 0,0,1
 265.931 348.38 265.931 348.38 227.268 348.38 c 128,-1,2
 188.413 348.38 188.413 348.38 161.676 327.624 c 0,3,4
 134.663 306.654 134.663 306.654 122.548 276.212 c 0,5,6
 109.389 243.149 109.389 243.149 109.389 209.454 c 0,7,8
 109.389 176.388 109.389 176.388 122.058 142.596 c 0,9,10
 133.449 112.213 133.449 112.213 159.706 91.997 c 0,11,12
 185.717 71.9717 185.717 71.9717 221.518 71.9717 c 0,13,14
 276.801 71.9717 276.801 71.9717 309.047 114.222 c 0,15,16
 339.071 153.562 339.071 153.562 339.071 213.964 c 0,17,18
 339.071 283.196 339.071 283.196 294.497 322.921 c 0,0,1
411.422 318.599 m 0,19,20
 432.41 268.834 432.41 268.834 432.41 210.56 c 128,-1,21
 432.41 152.177 432.41 152.177 410.028 101.884 c 0,22,23
 387.498 51.2583 387.498 51.2583 338.392 17.9484 c 128,-1,24
 289.196 -15.4225 289.196 -15.4225 223.185 -15.4225 c 128,-1,25
 157.174 -15.4225 157.174 -15.4225 107.948 17.9658 c 128,-1,26
 58.7511 51.3347 58.7511 51.3347 37.8083 102.067 c 0,27,28
 17.06 152.329 17.06 152.329 17.06 210.56 c 0,29,30
 17.06 269.006 17.06 269.006 40.1338 318.773 c 0,31,32
 63.378 368.908 63.378 368.908 112.428 402.184 c 128,-1,33
 161.614 435.552 161.614 435.552 227.634 435.552 c 128,-1,34
 293.678 435.552 293.678 435.552 342.013 402.134 c 128,-1,35
 390.261 368.775 390.261 368.775 411.422 318.599 c 0,19,20
EndSplineSet
EndChar

StartChar: p
Encoding: 112 112 83
Width: 398
Flags: MW
HStem: -188.67 20.35G 400.49 19.38G
VStem: 78.27 75.37 354.05 79.32
LayerCount: 2
Fore
SplineSet
115.72 30.4311 m 1,0,-1
 115.72 -206 l 1,1,-1
 28.84 -206 l 1,2,-1
 28.84 414.91 l 1,3,-1
 116.61 414.91 l 1,4,-1
 116.61 376.302 l 1,5,6
 148.424 425.7 148.424 425.7 207.642 425.7 c 0,7,8
 367.14 425.7 367.14 425.7 367.14 206 c 128,-1,9
 367.14 -13.7 367.14 -13.7 201.98 -13.7 c 0,10,11
 150.662 -13.7 150.662 -13.7 115.72 30.4311 c 1,0,-1
122.03 208.85 m 128,-1,13
 122.03 73.3401 122.03 73.3401 203.15 73.3401 c 128,-1,14
 284.27 73.3401 284.27 73.3401 284.27 208.85 c 128,-1,15
 284.27 344.36 284.27 344.36 205.52 344.36 c 0,16,12
 122.03 344.36 122.03 344.36 122.03 208.85 c 128,-1,13
EndSplineSet
EndChar

StartChar: q
Encoding: 113 113 84
Width: 392
Flags: MW
HStem: -188.55 20.37G 349.33 81.74
VStem: 82.32 71.46 333.6 68.65
LayerCount: 2
Fore
SplineSet
268.88 388.49 m 1,0,-1
 268.88 414.91 l 1,1,-1
 359.87 414.91 l 1,2,-1
 359.87 -206 l 1,3,-1
 270.26 -206 l 1,4,-1
 270.26 14.2117 l 1,5,6
 248.769 -15.277 248.769 -15.277 200.932 -15.277 c 0,7,8
 114.735 -15.277 114.735 -15.277 66.6875 37.3041 c 128,-1,9
 18.64 89.8853 18.64 89.8853 18.64 204.9 c 0,10,11
 18.64 425.07 18.64 425.07 207.18 425.07 c 0,12,13
 247.346 425.07 247.346 425.07 268.88 388.49 c 1,0,-1
203.85 75.58 m 0,14,15
 270.63 75.58 270.63 75.58 270.63 214.47 c 0,16,17
 270.63 334.33 270.63 334.33 203.47 334.33 c 0,18,19
 108.95 334.33 108.95 334.33 108.95 204.955 c 128,-1,20
 108.95 75.58 108.95 75.58 203.85 75.58 c 0,14,15
EndSplineSet
EndChar

StartChar: r
Encoding: 114 114 85
Width: 237
Flags: MW
HStem: 0 21G<28.79 110.67 28.79 28.79> 340 88<194.665 228 228 229>
VStem: 28.79 81.88<0 189 0 410>
LayerCount: 2
Fore
SplineSet
231 335 m 1,1,-1
 225 335 l 2,3,4
 115.67 335 115.67 335 115.67 189 c 2,5,-1
 115.67 -5 l 1,7,-1
 23.79 -5 l 1,10,-1
 23.79 414.91 l 1,13,-1
 116.56 414.91 l 1,16,-1
 116.56 378.079 l 1,18,19
 143.748 433 143.748 433 226 433 c 2,20,-1
 231 433 l 1,21,-1
 231 335 l 1,1,-1
EndSplineSet
EndChar

StartChar: s
Encoding: 115 115 86
Width: 305
Flags: MW
HStem: -10.07 85.54
VStem: 39.36 240.08
LayerCount: 2
Fore
SplineSet
235.135 324.885 m 1,0,1
 209.373 354.177 209.373 354.177 166.165 354.177 c 128,-1,2
 122.957 354.177 122.957 354.177 122.957 314.175 c 0,3,4
 122.957 275.336 122.957 275.336 195.103 249.084 c 0,5,6
 261.779 224.822 261.779 224.822 280.01 178.526 c 0,7,8
 292.771 146.123 292.771 146.123 292.771 112.529 c 128,-1,9
 292.771 78.9355 292.771 78.9355 271.209 45.0811 c 0,10,11
 232.898 -15.0703 232.898 -15.0703 154.82 -15.0703 c 0,12,13
 35.8203 -15.0703 35.8203 -15.0703 3.41016 73.0645 c 1,14,-1
 68.2354 123.535 l 1,15,16
 94.5 80.7354 94.5 80.7354 147.89 80.7354 c 128,-1,17
 201.28 80.7354 201.28 80.7354 201.28 123.94 c 0,18,19
 201.28 163.028 201.28 163.028 135.207 184.771 c 0,20,21
 37.4248 216.947 37.4248 216.947 37.4248 310.971 c 0,22,23
 37.4248 436.927 37.4248 436.927 177.965 436.927 c 0,24,25
 231.122 436.927 231.122 436.927 274.326 389.486 c 1,26,-1
 235.135 324.885 l 1,0,1
EndSplineSet
EndChar

StartChar: t
Encoding: 116 116 87
Width: 229
Flags: W
HStem: 0 21G<78.1 159.84 78.1 78.1> 317.5 92.5<160.73 208.99 33.27 159.84> 320.5 89.5<33.27 78.1 33.27 81.65>
VStem: 78.1 81.74<-5 312.5 414.91 601.745> 81.65 79.08
LayerCount: 2
Fore
SplineSet
165.73 414.91 m 1,0,-1
 213.99 414.91 l 5,1,-1
 213.99 312.5 l 1,2,-1
 164.84 312.5 l 1,3,-1
 164.84 -5 l 1,4,-1
 73.1 -5 l 1,5,-1
 73.1 315.5 l 1,6,-1
 28.27 315.5 l 1,7,-1
 28.27 414.91 l 1,8,-1
 76.65 414.91 l 1,9,-1
 76.65 601.745 l 1,10,-1
 165.73 634.604 l 1,11,-1
 165.73 414.91 l 1,0,-1
EndSplineSet
EndChar

StartChar: u
Encoding: 117 117 88
Width: 373
Flags: W
HStem: 0 21G<251.1 339.76 251.1 251.1> 390 20G
VStem: 54.24 83.66
LayerCount: 2
Fore
SplineSet
19.24 199 m 1,0,-1
 19.24 414.91 l 1,1,-1
 117.9 414.91 l 1,2,-1
 117.9 190 l 2,3,4
 117.9 77.31 117.9 77.31 188.41 77.31 c 0,5,6
 248.77 77.31 248.77 77.31 248.77 216 c 1,7,-1
 248.77 414.91 l 1,8,-1
 344.76 414.91 l 1,9,-1
 344.76 -5 l 1,10,-1
 246.1 -5 l 1,11,-1
 246.1 28.7072 l 1,12,13
 219.396 -15 219.396 -15 156.82 -15 c 0,14,15
 19.24 -15 19.24 -15 19.24 199 c 1,0,-1
EndSplineSet
EndChar

StartChar: v
Encoding: 118 118 89
Width: 357
Flags: MW
HStem: -48.82 458.73
VStem: -0.18 355.19
LayerCount: 2
Fore
SplineSet
-7.40436 414.91 m 1,0,-1
 89.0647 414.91 l 1,1,-1
 173.81 196.221 l 1,2,-1
 266.985 414.91 l 1,3,-1
 362.371 414.91 l 1,4,-1
 172.351 -62.6701 l 1,5,-1
 -7.40436 414.91 l 1,0,-1
EndSplineSet
EndChar

StartChar: w
Encoding: 119 119 90
Width: 547
Flags: MW
HStem: -33.08 455.93
LayerCount: 2
Fore
SplineSet
-0.276678 414.91 m 1,0,-1
 89.6477 414.91 l 1,1,-1
 187.115 170.839 l 1,2,-1
 274.367 393.679 l 1,3,-1
 363.65 170.763 l 1,4,-1
 460.22 414.91 l 1,5,-1
 549.117 414.91 l 1,6,-1
 374.106 -45.9387 l 1,7,-1
 274.42 168.403 l 1,8,-1
 174.734 -45.9387 l 1,9,-1
 -0.276678 414.91 l 1,0,-1
EndSplineSet
EndChar

StartChar: x
Encoding: 120 120 91
Width: 371
Flags: MW
HStem: 0 21G<0.900002 87.04 0.900002 0.900002 281.38 371.07 281.38 281.38 371.07 371.77>
VStem: 0.9 370.87
LayerCount: 2
Fore
SplineSet
121.295 228.252 m 1,0,-1
 13.1756 414.91 l 1,1,-1
 121.377 414.91 l 1,2,-1
 184.407 299.436 l 1,3,-1
 251.85 414.91 l 1,4,-1
 353.706 414.91 l 1,5,-1
 243.433 227.187 l 1,6,-1
 380.529 -5 l 1,7,-1
 278.481 -5 l 1,8,-1
 183.436 161.061 l 1,9,-1
 89.9633 -5 l 1,10,-1
 -7.57485 -5 l 1,11,-1
 121.295 228.252 l 1,0,-1
EndSplineSet
EndChar

StartChar: y
Encoding: 121 121 92
Width: 422
Flags: MW
VStem: 2.24 382.1
LayerCount: 2
Fore
SplineSet
129.537 79.0829 m 1,0,-1
 -12.2994 414.91 l 1,1,-1
 90.482 414.91 l 1,2,-1
 187.066 186.924 l 1,3,-1
 290.002 414.91 l 1,4,-1
 396.197 414.91 l 1,5,-1
 106.922 -206 l 1,6,-1
 -0.243489 -206 l 1,7,-1
 129.537 79.0829 l 1,0,-1
EndSplineSet
EndChar

StartChar: z
Encoding: 122 122 93
Width: 357
Flags: MW
HStem: 0 83<146.241 345.39> 335 79<58.59 197.665>
VStem: 25.62 355.77
LayerCount: 2
Fore
SplineSet
58.59 332 m 1,0,-1
 58.59 419 l 1,1,-1
 343.831 419 l 1,2,-1
 146.241 86 l 1,3,-1
 345.39 86 l 1,4,-1
 345.39 -5 l 1,5,-1
 -11.3651 -5 l 1,6,-1
 197.665 332 l 1,7,-1
 58.59 332 l 1,0,-1
EndSplineSet
EndChar

StartChar: asciitilde
Encoding: 126 126 94
Width: 470
Flags: W
LayerCount: 2
Fore
SplineSet
282.137 566.048 m 1,0,1
 286.692 549.13 286.692 549.13 298.084 549.13 c 128,-1,2
 309.477 549.13 309.477 549.13 313.971 554.203 c 0,3,4
 325.753 567.505 325.753 567.505 311.837 580.536 c 1,5,-1
 362.23 606.15 l 1,6,-1
 362.23 598 l 1,7,8
 368.164 581.492 368.164 581.492 368.164 569.98 c 0,9,10
 368.164 532.702 368.164 532.702 347.726 518.024 c 0,11,12
 319.523 497.768 319.523 497.768 300.779 497.768 c 0,13,14
 253.542 497.768 253.542 497.768 237.851 541.168 c 1,15,-1
 282.137 566.048 l 1,0,1
241.863 531.952 m 1,16,17
 237.308 548.87 237.308 548.87 225.916 548.87 c 128,-1,18
 214.523 548.87 214.523 548.87 210.029 543.797 c 0,19,20
 198.247 530.495 198.247 530.495 212.163 517.464 c 1,21,-1
 161.77 491.85 l 1,22,-1
 161.77 500 l 1,23,24
 155.836 516.508 155.836 516.508 155.836 528.02 c 0,25,26
 155.836 565.299 155.836 565.299 176.274 579.977 c 0,27,28
 204.477 600.232 204.477 600.232 223.221 600.232 c 0,29,30
 270.458 600.232 270.458 600.232 286.149 556.832 c 1,31,-1
 241.863 531.952 l 1,16,17
EndSplineSet
EndChar

StartChar: exclamdown
Encoding: 161 161 95
Width: 176
Flags: W
HStem: 0 21G<45.84 45.84 45.84 126.83> 676 20G<87.475 100.525>
VStem: 42.38 103.24<588.226 681.281> 45.84 80.99<-5 446>
LayerCount: 2
Fore
SplineSet
40.84 -5 m 1,0,-1
 40.84 446 l 1,1,-1
 131.83 446 l 1,2,-1
 131.83 -5 l 1,3,-1
 40.84 -5 l 1,0,-1
54.7616 682.43 m 128,-1,5
 72.2666 701 72.2666 701 94 701 c 128,-1,6
 115.787 701 115.787 701 133.289 681.876 c 128,-1,7
 150.62 662.937 150.62 662.937 150.62 632.871 c 128,-1,8
 150.62 602.805 150.62 602.805 132.986 586.571 c 128,-1,9
 115.529 570.5 115.529 570.5 94 570.5 c 128,-1,10
 72.3738 570.5 72.3738 570.5 54.8946 587.685 c 128,-1,11
 37.38 604.904 37.38 604.904 37.38 634.447 c 128,-1,4
 37.38 663.99 37.38 663.99 54.7616 682.43 c 128,-1,5
EndSplineSet
EndChar

StartChar: yen
Encoding: 165 165 96
Width: 570
Flags: MW
HStem: 112.02 87.98 292.02 87.98
VStem: 261.23 88.46<-5 205.02 276.01 312.02>
LayerCount: 2
Fore
SplineSet
38.8764 697 m 1,0,-1
 145.227 697 l 1,1,-1
 304.972 427.887 l 1,2,-1
 461.191 697 l 1,3,-1
 567.501 697 l 1,4,-1
 385.261 385.01 l 1,5,-1
 526.26 385.01 l 1,6,-1
 526.26 312.02 l 1,7,-1
 354.68 312.02 l 1,8,-1
 354.68 276.01 l 1,9,-1
 526.93 276.01 l 1,10,-1
 526.93 205.02 l 1,11,-1
 354.68 205.02 l 1,12,-1
 354.68 -5 l 1,13,-1
 256.23 -5 l 1,14,-1
 256.23 205.02 l 1,15,-1
 66.25 205.02 l 1,16,-1
 66.25 276.01 l 1,17,-1
 256.23 276.01 l 1,18,-1
 256.23 312.02 l 1,19,-1
 68.55 312.02 l 1,20,-1
 68.55 385.01 l 1,21,-1
 223.706 385.01 l 1,22,-1
 38.8764 697 l 1,0,-1
EndSplineSet
EndChar

StartChar: dieresis
Encoding: 200 168 97
Width: 616
Flags: MW
HStem: 740 119<249.625 262.68 436.32 449.375>
VStem: 204.54 103.24<753.548 845.99> 391.22 103.24<753.548 845.99>
LayerCount: 2
Fore
SplineSet
217.017 846.538 m 128,-1,1
 234.503 864 234.503 864 256.15 864 c 128,-1,2
 277.716 864 277.716 864 295.243 847.59 c 128,-1,3
 312.77 831.18 312.77 831.18 312.77 802 c 0,4,5
 312.77 770.965 312.77 770.965 295.312 752.983 c 128,-1,6
 277.855 735 277.855 735 256.15 735 c 128,-1,7
 234.498 735 234.498 735 217.016 752.463 c 128,-1,8
 199.54 769.92 199.54 769.92 199.54 800 c 0,9,0
 199.54 829.085 199.54 829.085 217.017 846.538 c 128,-1,1
403.707 846.538 m 128,-1,11
 421.193 864 421.193 864 442.85 864 c 128,-1,12
 464.406 864 464.406 864 481.933 847.59 c 128,-1,13
 499.46 831.18 499.46 831.18 499.46 802 c 0,14,15
 499.46 770.965 499.46 770.965 482.003 752.983 c 128,-1,16
 464.545 735 464.545 735 442.85 735 c 128,-1,17
 421.188 735 421.188 735 403.706 752.463 c 128,-1,18
 386.23 769.92 386.23 769.92 386.23 800 c 0,19,10
 386.23 829.085 386.23 829.085 403.707 846.538 c 128,-1,11
EndSplineSet
EndChar

StartChar: guillemotleft
Encoding: 171 171 98
Width: 564
Flags: W
LayerCount: 2
Fore
SplineSet
426.39 438.156 m 1,14,-1
 426.39 338.527 l 1,1,-1
 359.946 287.791 l 1,3,-1
 426.39 231.312 l 1,5,-1
 426.39 127.304 l 1,8,-1
 232.74 289.161 l 1,11,-1
 426.39 438.156 l 1,14,-1
242.16 440.081 m 1,30,-1
 242.16 341.555 l 1,17,-1
 175.705 289.861 l 1,19,-1
 242.16 234.338 l 1,21,-1
 242.16 129.293 l 1,24,-1
 47.5958 292.189 l 1,27,-1
 242.16 440.081 l 1,30,-1
EndSplineSet
EndChar

StartChar: degree
Encoding: 258 176 99
Width: 529
Flags: W
LayerCount: 2
Fore
SplineSet
280.225 785.117 m 128,-1,5
 284.452 785.117 284.452 785.117 290.851 786.973 c 128,-1,7
 297.25 788.828 297.25 788.828 297.25 801.98 c 128,-1,9
 297.25 815.131 297.25 815.131 290.828 818.88 c 128,-1,11
 284.406 822.63 284.406 822.63 280.377 822.63 c 128,-1,13
 276.348 822.63 276.348 822.63 269.994 818.463 c 128,-1,15
 263.64 814.295 263.64 814.295 263.64 801.616 c 128,-1,1
 263.64 788.937 263.64 788.937 269.82 787.027 c 128,-1,3
 275.999 785.117 275.999 785.117 280.225 785.117 c 128,-1,5
233.785 744.922 m 128,-1,29
 212.7 764.845 212.7 764.845 212.7 800.081 c 128,-1,31
 212.7 835.318 212.7 835.318 233.864 853.159 c 128,-1,17
 255.028 871 255.028 871 280.102 871 c 128,-1,19
 305.175 871 305.175 871 326.237 850.555 c 128,-1,21
 347.3 830.11 347.3 830.11 347.3 798.003 c 128,-1,23
 347.3 765.897 347.3 765.897 326.239 745.448 c 128,-1,25
 305.178 725 305.178 725 280.012 725 c 128,-1,27
 254.869 725 254.869 725 233.785 744.922 c 128,-1,29
EndSplineSet
EndChar

StartChar: plusminus
Encoding: 259 177 100
Width: 467
Flags: W
LayerCount: 2
Fore
SplineSet
425.66 122 m 1,10,-1
 70.34 122 l 1,1,-1
 70.34 223 l 1,4,-1
 425.66 223 l 1,7,-1
 425.66 122 l 1,10,-1
293.05 469 m 1,0,0
 293.05 313 l 1,2,-1
 288.05 313 l 1,3,-1
 207.95 313 l 1,4,-1
 202.95 313 l 1,5,-1
 202.95 318 l 1,6,-1
 202.95 468 l 1,7,-1
 82.46 468 l 1,8,-1
 77.46 468 l 1,9,-1
 77.46 473 l 1,10,-1
 77.46 561 l 1,11,-1
 77.46 566 l 1,12,-1
 82.46 566 l 1,13,-1
 202.06 566 l 1,14,-1
 202.06 707 l 1,15,-1
 202.06 712 l 1,16,-1
 207.06 712 l 1,17,-1
 287.16 712 l 1,18,-1
 292.16 712 l 1,19,-1
 292.16 707 l 1,20,-1
 292.16 569 l 1,21,-1
 409.09 569 l 1,22,-1
 414.09 569 l 1,23,-1
 414.09 564 l 1,24,-1
 414.09 474 l 1,25,-1
 414.09 469 l 1,26,-1
 409.09 469 l 1,27,-1
 293.05 469 l 1,0,0
EndSplineSet
EndChar

StartChar: uni00B2
Encoding: 260 178 101
Width: 386
Flags: W
LayerCount: 2
Fore
SplineSet
273.18 829.232 m 0,8,9
 234.29 823.112 234.29 823.112 226.034 787 c 1,13,-1
 182.322 821.301 l 1,16,-1
 205.892 881 205.892 881 273.96 881 c 0,19,20
 320.815 881 320.815 881 342.385 854.829 c 128,-1,22
 363.954 828.658 363.954 828.658 363.954 793.323 c 0,23,24
 363.954 741.635 363.954 741.635 326.215 682.265 c 2,27,-1
 254.869 576 l 1,28,-1
 372.41 576 l 1,30,-1
 372.41 520 l 1,33,-1
 154.138 520 l 1,37,-1
 294.661 725.662 l 2,0,1
 313.295 757.889 313.295 757.889 313.295 783.784 c 0,2,3
 313.295 819.787 313.295 819.787 281.592 828.166 c 0,6,7
 275.926 829.664 275.926 829.664 273.18 829.232 c 0,8,9
EndSplineSet
EndChar

StartChar: uni00B3
Encoding: 261 179 102
Width: 368
Flags: W
LayerCount: 2
Fore
SplineSet
174.827 572.991 m 1,22,-1
 212.856 548.13 212.856 548.13 254.032 548.13 c 0,27,28
 272.581 548.13 272.581 548.13 292.977 564.308 c 128,-1,30
 313.372 580.486 313.372 580.486 313.372 613.982 c 0,31,32
 313.372 631.017 313.372 631.017 295.151 655.509 c 128,-1,34
 276.93 680 276.93 680 211 680 c 2,35,-1
 200.255 680 l 1,37,-1
 285.122 817.746 l 1,40,-1
 179.349 817.746 l 1,43,-1
 179.349 870.521 l 1,48,-1
 378.177 870.521 l 1,1,-1
 283.947 718.739 l 1,4,5
 313.092 714.317 313.092 714.317 339.086 682.411 c 128,-1,7
 365.08 650.506 365.08 650.506 365.08 608.089 c 128,-1,9
 365.08 565.672 365.08 565.672 329.834 527.406 c 0,10,11
 303.868 499.217 303.868 499.217 252.321 499.217 c 2,12,-1
 250.429 499.217 l 1,14,15
 195.378 499.217 195.378 499.217 148.253 528.181 c 1,18,-1
 174.827 572.991 l 1,22,-1
EndSplineSet
EndChar

StartChar: acute
Encoding: 194 180 103
Width: 932
Flags: W
LayerCount: 2
Fore
SplineSet
419.933 992.996 m 1,0,-1
 481.655 911.342 l 1,1,-1
 339.321 787 l 1,2,-1
 288.399 837.816 l 1,3,-1
 419.933 992.996 l 1,0,-1
EndSplineSet
EndChar

StartChar: uni00B9
Encoding: 262 185 104
Width: 272
Flags: W
LayerCount: 2
Fore
SplineSet
169.387 772.17 m 1,23,-1
 163.086 764.546 l 1,1,-1
 128.219 799.93 l 1,4,-1
 222.05 903.93 l 1,11,-1
 222.05 525 l 1,17,-1
 168.22 525 l 1,22,-1
 169.387 772.17 l 1,23,-1
EndSplineSet
EndChar

StartChar: guillemotright
Encoding: 187 187 105
Width: 564
Flags: W
LayerCount: 2
Fore
SplineSet
51.61 438.125 m 1,14,-1
 246.174 289.162 l 1,1,-1
 51.61 127.338 l 1,4,-1
 51.61 231.312 l 1,7,-1
 118.064 287.791 l 1,9,-1
 51.61 338.527 l 1,11,-1
 51.61 438.125 l 1,14,-1
236.73 440.111 m 1,30,-1
 430.38 292.188 l 1,17,-1
 236.73 129.259 l 1,20,-1
 236.73 234.338 l 1,23,-1
 303.176 289.861 l 1,25,-1
 236.73 341.555 l 1,27,-1
 236.73 440.111 l 1,30,-1
EndSplineSet
EndChar

StartChar: questiondown
Encoding: 191 191 106
Width: 517
Flags: W
LayerCount: 2
Fore
SplineSet
297.14 82 m 0,50,51
 347.442 82 347.442 82 370.085 112.952 c 2,2,3
 398.594 148.866 l 1,5,-1
 441.057 70.4829 l 1,8,-1
 382.943 -5 382.943 -5 285.598 -5 c 0,13,14
 204.179 -5 204.179 -5 156.044 46.5101 c 128,-1,16
 107.91 98.0202 107.91 98.0202 107.91 182 c 0,17,18
 107.91 224.063 107.91 224.063 124.303 260.397 c 128,-1,20
 140.695 296.732 140.695 296.732 177.648 339.258 c 2,21,-1
 214.984 383.207 l 2,22,23
 247.277 422.444 247.277 422.444 253.666 442.049 c 128,-1,25
 260.1 461.791 260.1 461.791 260.1 513 c 2,26,-1
 260.1 540 l 1,28,-1
 356.43 540 l 1,31,-1
 356.43 502 l 2,33,34
 356.43 442.931 356.43 442.931 341.362 409.089 c 128,-1,36
 326.295 375.247 326.295 375.247 292.05 335.763 c 2,37,-1
 253.852 289.849 l 2,38,39
 246.541 280.615 246.541 280.615 238.633 272.722 c 0,40,41
 199.79 233.953 199.79 233.953 199.79 192 c 0,48,49
 199.79 82 199.79 82 297.14 82 c 0,50,51
346.925 643.685 m 128,-1,53
 329.446 626.5 329.446 626.5 307.82 626.5 c 128,-1,55
 286.294 626.5 286.294 626.5 268.834 642.571 c 128,-1,57
 251.2 658.802 251.2 658.802 251.2 688.914 c 128,-1,59
 251.2 719.025 251.2 719.025 268.632 736.983 c 128,-1,61
 286.123 755 286.123 755 307.82 755 c 128,-1,63
 329.475 755 329.475 755 346.954 737.537 c 128,-1,65
 364.44 720.067 364.44 720.067 364.44 690.485 c 128,-1,67
 364.44 660.904 364.44 660.904 346.925 643.685 c 128,-1,53
EndSplineSet
EndChar

StartChar: multiply
Encoding: 281 215 125
Width: 467
Flags: W
LayerCount: 2
Fore
SplineSet
309.092 360.032 m 1,0,0
 407.007 251.015 l 1,2,-1
 343.357 179.498 l 1,5,-1
 245.495 288.456 l 1,7,-1
 158.258 188.437 l 1,9,-1
 94.5665 260 l 1,12,-1
 184.383 360.918 l 1,14,-1
 90.9334 460.918 l 1,16,-1
 154.642 532.5 l 1,19,-1
 245.402 431.522 l 1,21,-1
 330.861 528.543 l 1,23,-1
 394.518 457.017 l 1,26,-1
 309.092 360.032 l 1,0,0
EndSplineSet
EndChar

StartChar: dotlessi
Encoding: 245 305 158
Width: 195
Flags: W
LayerCount: 2
Fore
SplineSet
145.94 438 m 1,0,-1
 150.94 438 l 1,1,-1
 150.94 433 l 1,2,-1
 150.94 -2.18557e-07 l 1,3,-1
 150.94 -5 l 1,4,-1
 145.94 -5 l 1,5,-1
 65.84 -5 l 1,6,-1
 60.8605 -5 l 1,7,-1
 60.84 -0.0205542 l 1,8,-1
 59.06 432.979 l 1,9,-1
 59.0394 438 l 1,10,-1
 64.06 438 l 1,11,-1
 145.94 438 l 1,0,-1
EndSplineSet
EndChar

StartChar: uni030A
Encoding: 322 778 167
Width: 145
Flags: W
LayerCount: 2
Fore
SplineSet
59.64 791 m 128,-1,1
 59.64 777.806 59.64 777.806 65.754 774.088 c 128,-1,2
 71.868 770.37 71.868 770.37 75.8897 770.37 c 128,-1,3
 79.9114 770.37 79.9114 770.37 86.5807 774.569 c 128,-1,4
 93.25 778.768 93.25 778.768 93.25 791.449 c 128,-1,5
 93.25 804.131 93.25 804.131 86.7268 807.94 c 128,-1,6
 80.2036 811.749 80.2036 811.749 76.1112 811.749 c 128,-1,7
 72.0625 811.749 72.0625 811.749 65.8512 807.971 c 128,-1,0
 59.64 804.194 59.64 804.194 59.64 791 c 128,-1,1
29.7913 732.867 m 128,-1,9
 8.7 751.233 8.7 751.233 8.7 787 c 128,-1,10
 8.7 822.767 8.7 822.767 29.8857 841.384 c 128,-1,11
 51.0713 860 51.0713 860 76.1232 860 c 128,-1,12
 101.175 860 101.175 860 122.237 839.56 c 128,-1,13
 143.3 819.121 143.3 819.121 143.3 787 c 128,-1,14
 143.3 754.879 143.3 754.879 122.224 734.689 c 128,-1,15
 101.148 714.5 101.148 714.5 76 714.5 c 128,-1,8
 50.8826 714.5 50.8826 714.5 29.7913 732.867 c 128,-1,9
EndSplineSet
EndChar

StartChar: quoteleft
Encoding: 96 8216 168
Width: 175
Flags: W
LayerCount: 2
Fore
SplineSet
112.704 648.337 m 1,20,21
 127.236 636.469 127.236 636.469 127.368 620.724 c 128,-1,23
 127.501 604.979 127.501 604.979 127.501 600.744 c 129,-1,1
 127.501 596.51 127.501 596.51 116.724 582.109 c 0,2,3
 101.13 561.273 101.13 561.273 84.5717 561.273 c 0,4,5
 68.3964 561.273 68.3964 561.273 54.1082 572.949 c 128,-1,9
 39.82 584.625 39.82 584.625 39.82 623.122 c 128,-1,11
 39.82 661.619 39.82 661.619 61.0342 701 c 128,-1,13
 82.2485 740.382 82.2485 740.382 108.036 750.682 c 2,14,-1
 124.301 756.774 l 1,15,-1
 113.765 742.967 l 2,16,17
 104.11 730.315 104.11 730.315 104.11 696.311 c 128,-1,19
 104.11 662.306 104.11 662.306 112.704 648.337 c 1,20,21
EndSplineSet
EndChar

StartChar: quoteright
Encoding: 39 8217 169
Width: 177
Flags: W
LayerCount: 2
Fore
SplineSet
64.3684 718.796 m 0,0,1
 73.2338 735.946 73.2338 735.946 88.7665 742.144 c 0,2,3
 94.2582 744.335 94.2582 744.335 99.8625 744.335 c 0,4,5
 110.852 744.335 110.852 744.335 121.705 735.958 c 0,6,7
 137.847 723.498 137.847 723.498 142.291 693.693 c 0,8,9
 143.505 685.547 143.505 685.547 143.505 673.988 c 0,10,11
 143.505 639.131 143.505 639.131 128.061 606.843 c 0,12,13
 108.177 565.275 108.177 565.275 84.3744 553.517 c 2,14,-1
 72.8205 547.81 l 1,15,-1
 77.5015 559.816 l 2,16,17
 83.39 574.919 83.39 574.919 83.39 611 c 0,18,19
 83.39 645.453 83.39 645.453 71.6654 653.952 c 0,20,21
 55.8 665.453 55.8 665.453 55.8 682 c 0,22,23
 55.8 702.221 55.8 702.221 64.3684 718.796 c 0,0,1
EndSplineSet
EndChar

StartChar: quotedblleft
Encoding: 170 8220 170
Width: 275
Flags: W
LayerCount: 2
Fore
SplineSet
232.846 586.266 m 0,0,1
 222.014 569.678 222.014 569.678 205.495 565.176 c 0,2,3
 201.169 563.997 201.169 563.997 196.833 563.997 c 0,4,5
 184.05 563.997 184.05 563.997 171.655 574.129 c 0,6,7
 155.13 587.637 155.13 587.637 155.13 618 c 0,8,9
 155.13 661.898 155.13 661.898 176.198 701 c 0,10,11
 197.563 740.653 197.563 740.653 223.346 752.682 c 2,12,-1
 237.742 758.074 l 1,13,-1
 229.273 745.245 l 2,14,15
 219.87 731.003 219.87 731.003 219.87 696 c 0,16,17
 219.87 662.091 219.87 662.091 227.771 651.562 c 1,18,19
 243.45 639.169 243.45 639.169 243.45 622 c 0,20,21
 243.45 602.504 243.45 602.504 232.846 586.266 c 0,0,1
128.496 612.817 m 0,22,23
 128.496 596.496 128.496 596.496 118.498 583.458 c 0,24,25
 106.425 567.714 106.425 567.714 90.667 562.733 c 0,26,27
 86.0488 561.273 86.0488 561.273 81.3623 561.273 c 0,28,29
 69.1445 561.273 69.1445 561.273 57.0771 571.128 c 0,30,31
 40.5498 584.625 40.5498 584.625 40.5498 616 c 0,32,33
 40.5498 661.903 40.5498 661.903 61.6182 701 c 0,34,35
 83.2386 741.12 83.2386 741.12 108.766 750.682 c 2,36,-1
 125.031 756.774 l 1,37,-1
 114.495 742.967 l 2,38,39
 104.84 730.314 104.84 730.314 104.84 696 c 0,40,41
 104.84 662.306 104.84 662.306 113.434 648.337 c 1,42,43
 127.978 636.469 127.978 636.469 127.978 620.354 c 0,44,45
 127.978 619.226 127.978 619.226 128.237 616.691 c 128,-1,47
 128.496 614.156 128.496 614.156 128.496 612.817 c 0,22,23
EndSplineSet
EndChar

StartChar: quotedblright
Encoding: 186 8221 171
Width: 337
Flags: W
LayerCount: 2
Fore
SplineSet
208.08 561.812 m 2,18,19
 213.97 576.956 213.97 576.956 213.97 612.275 c 128,-1,21
 213.97 647.595 213.97 647.595 199.699 659.177 c 128,-1,23
 185.428 670.758 185.428 670.758 185.428 701 c 0,0,1
 185.428 709.01 185.428 709.01 197.03 727.81 c 128,-1,3
 208.632 746.61 208.632 746.61 224.931 746.61 c 128,-1,7
 241.229 746.61 241.229 746.61 257.657 734.499 c 128,-1,9
 274.085 722.389 274.085 722.389 274.085 681.817 c 128,-1,13
 274.085 641.246 274.085 641.246 256.434 604.807 c 128,-1,15
 238.782 568.368 238.782 568.368 215.114 555.599 c 2,16,-1
 203.154 549.148 l 1,17,-1
 208.08 561.812 l 2,18,19
80.9297 559.812 m 2,44,45
 86.8203 574.959 86.8203 574.959 86.8203 610.2 c 128,-1,47
 86.8203 645.444 86.8203 645.444 73.0244 655.444 c 128,-1,49
 59.2295 665.445 59.2295 665.445 59.2295 683.83 c 128,-1,51
 59.2295 702.215 59.2295 702.215 70.1143 723.274 c 128,-1,29
 81 744.333 81 744.333 103.282 744.333 c 0,32,33
 114.288 744.333 114.288 744.333 130.611 731.729 c 128,-1,35
 146.935 719.127 146.935 719.127 146.935 679.143 c 128,-1,39
 146.935 639.158 146.935 639.158 129.27 602.22 c 128,-1,41
 111.606 565.281 111.606 565.281 87.8057 553.518 c 2,42,-1
 76.2627 547.812 l 1,43,-1
 80.9297 559.812 l 2,44,45
EndSplineSet
EndChar

StartChar: uniFB00
Encoding: 323 64256 172
Width: 482
Flags: W
LayerCount: 2
Fore
SplineSet
266.5 533 m 1,0,0
 250 507.5 250 507.5 249.77 415 c 1,1,-1
 215 415 l 1,2,-1
 215 325 l 1,3,-1
 246.188 325 l 1,4,-1
 246.188 -5 l 1,5,-1
 342.977 -5 l 1,6,-1
 342.977 323 l 1,7,-1
 415.407 323 l 5,8,-1
 415.407 415 l 5,9,-1
 344.78 415 l 1,10,11
 344.78 499.677 344.78 499.677 355.595 519.169 c 128,-1,12
 366.41 538.661 366.41 538.661 378.59 547.919 c 128,-1,13
 390.769 557.176 390.769 557.176 416.471 540.343 c 1,14,-1
 464.314 608.185 l 1,15,16
 453.911 626.833 453.911 626.833 431.498 637.256 c 0,17,18
 410.544 647 410.544 647 389.132 647 c 0,19,20
 338.967 647 338.967 647 306.859 616.939 c 1,21,22
 279.892 647 279.892 647 214.387 647 c 0,23,24
 52.0225 647 52.0225 647 52.0225 415 c 1,25,-1
 3.76074 415 l 1,26,-1
 3.76074 327 l 1,27,-1
 48.4414 327 l 1,28,-1
 48.4414 -5 l 1,29,-1
 145.23 -5 l 1,30,-1
 145.23 325 l 1,31,-1
 207.674 325 l 1,32,-1
 207.674 415 l 1,33,-1
 147.035 415 l 1,34,35
 147.035 561.208 147.035 561.208 217 559 c 0,36,37
 263.72 558 263.72 558 266.5 533 c 1,0,0
EndSplineSet
LCarets2: 1 0 
Ligature2: "'liga' Standard Ligatures in Latin lookup 0 subtable" f f
EndChar

StartChar: germandbls
Encoding: 251 223 173
Width: 401
Flags: W
HStem: 0 21G<71.1 160.93 71.1 71.1> 334.01 85.66<163.9 270.96> 334.01 89.99<21.19 71.1> 556.02 85.97
LayerCount: 2
Fore
SplineSet
318.537 244.694 m 1,0,1
 369.919 191.781 369.919 191.781 369.919 98.7139 c 128,-1,2
 369.919 5.64697 369.919 5.64697 292.371 -58.91 c 1,3,-1
 194.481 -58.91 l 1,4,-1
 204.206 -50.1878 l 2,5,6
 285.202 22.457 285.202 22.457 285.202 108.88 c 0,7,8
 285.202 179.217 285.202 179.217 224.439 244.667 c 1,9,-1
 270.96 334.01 l 1,10,-1
 160.93 334.01 l 1,11,-1
 160.93 0 l 1,12,-1
 71.1 0 l 1,13,-1
 71.1 334.01 l 1,14,-1
 21.19 334.01 l 1,15,-1
 21.19 424 l 1,16,-1
 75.08 424 l 1,17,18
 75.08 548.499 75.08 548.499 133.262 601.113 c 0,19,20
 171.393 635.595 171.393 635.595 212.988 635.595 c 128,-1,21
 254.583 635.595 254.583 635.595 291.656 616.048 c 1,22,-1
 248.751 547.055 l 1,23,24
 235.881 552.069 235.881 552.069 223.231 552.069 c 0,25,26
 163.9 552.069 163.9 552.069 163.9 419.91 c 1,27,-1
 374.03 419.91 l 1,28,-1
 374.03 334.01 l 1,29,-1
 318.537 244.694 l 1,0,1
EndSplineSet
EndChar

StartChar: longs
Encoding: 324 383 174
Width: 341
Flags: W
HStem: 0 21G<94.04 180.37>
VStem: 94.04 86.33<0 517.316>
LayerCount: 2
Fore
SplineSet
263.902 539.816 m 1,8,-1
 221.86 571.965 221.86 571.965 200.495 524.938 c 0,13,14
 185.37 491.643 185.37 491.643 185.37 419 c 2,15,-1
 185.37 -5 l 1,17,-1
 89.04 -5 l 1,20,-1
 89.04 421 l 2,22,23
 89.04 520.591 89.04 520.591 141.93 600.252 c 0,0,1
 176.391 652.156 176.391 652.156 225.287 652.156 c 0,2,3
 265.217 652.156 265.217 652.156 311.792 623.892 c 1,5,-1
 263.902 539.816 l 1,8,-1
EndSplineSet
EndChar

StartChar: cent
Encoding: 162 162 175
Width: 555
Flags: W
LayerCount: 2
Fore
SplineSet
363.49 578.266 m 1,32,33
 398.654 578.266 398.654 578.266 450.8 550.449 c 1,35,-1
 450.8 446.59 l 1,38,-1
 442.589 453.467 l 2,39,40
 402.487 489.071 402.487 489.071 363.49 489.071 c 1,0,0
 363.49 237.979 l 1,1,2
 411.966 252.492 411.966 252.492 450.8 283.695 c 1,4,-1
 450.8 179.328 l 1,7,-1
 407.74 145.501 407.74 145.501 363.49 145.501 c 1,10,-1
 363.49 56.3 l 1,12,-1
 291.81 56.3 l 1,15,-1
 291.81 147.271 l 1,17,18
 219.827 147.271 219.827 147.271 172.513 209.632 c 128,-1,20
 125.2 271.992 125.2 271.992 125.2 358.969 c 128,-1,22
 125.2 445.945 125.2 445.945 171.088 503.487 c 128,-1,24
 216.976 561.029 216.976 561.029 291.81 575.748 c 1,25,-1
 291.81 647.7 l 1,27,-1
 363.49 647.7 l 1,30,-1
 363.49 578.266 l 1,32,33
291.81 486.867 m 1,0,0
 260.144 477.624 260.144 477.624 236.122 444.824 c 128,-1,2
 212.1 412.025 212.1 412.025 212.1 361.873 c 128,-1,4
 212.1 311.722 212.1 311.722 235.062 279.714 c 128,-1,6
 258.024 247.705 258.024 247.705 291.81 237.861 c 1,7,-1
 291.81 486.867 l 1,0,0
EndSplineSet
EndChar

StartChar: Euro
Encoding: 325 8364 176
Width: 474
Flags: MW
HStem: 31.26 89.08<231.777 255.719 255.719 331.168> 263.13 70.17<34.3214 85.4965 171.919 332.334> 391.9 70.07<40.4327 87.8745 173.942 352.309> 595.74 89.08
VStem: 92.67 86.7<466.97 532.4>
LayerCount: 2
Fore
SplineSet
88.7846 466.97 m 1,0,1
 134 678.9 134 678.9 275.603 678.9 c 1,2,3
 348.524 678.9 348.524 678.9 416.24 619.59 c 1,4,-1
 416.24 509.429 l 1,5,-1
 407.256 521.279 l 2,6,7
 354.364 591.044 354.364 591.044 291.101 591.044 c 0,8,9
 208.131 591.044 208.131 591.044 173.942 466.97 c 1,10,-1
 381.505 466.97 l 1,11,-1
 352.309 386.9 l 1,12,-1
 165.294 386.9 l 1,13,-1
 165.294 338.3 l 1,14,-1
 361.434 338.3 l 1,15,-1
 332.334 258.13 l 1,16,-1
 171.919 258.13 l 1,17,18
 213.357 126.396 213.357 126.396 263.892 125.339 c 0,19,20
 265.183 125.312 265.183 125.312 266.589 125.312 c 0,21,22
 330.645 125.312 330.645 125.312 396.794 190.865 c 2,23,-1
 405.38 199.699 l 1,24,-1
 405.38 91.0255 l 1,25,26
 352.5 37.0762 352.5 37.0762 255.581 37.0762 c 0,27,28
 255.65 37.0762 255.65 37.0762 255.719 37.2649 c 0,29,30
 142.94 37.2649 142.94 37.2649 91.0141 258.13 c 1,31,-1
 14.5902 258.13 l 1,32,-1
 34.3214 338.3 l 1,33,-1
 85.4965 338.3 l 1,34,35
 87.8745 343.657 87.8745 343.657 87.8745 386.9 c 1,36,-1
 20.698 386.9 l 1,37,-1
 40.4327 466.97 l 1,38,-1
 88.7846 466.97 l 1,0,1
EndSplineSet
EndChar

StartChar: fi
Encoding: 174 64257 177
Width: 416
Flags: W
LayerCount: 2
Fore
SplineSet
279.092 471.47 m 1,14,-1
 279.092 477.237 l 2,16,17
 279.092 503.317 279.092 503.317 267.235 525.729 c 128,-1,19
 255.379 548.141 255.379 548.141 236.735 548.141 c 0,22,23
 232.266 548.141 232.266 548.141 227.969 546.393 c 0,24,25
 207.208 537.946 207.208 537.946 197.53 516.586 c 128,-1,27
 187.853 495.225 187.853 495.225 187.853 415.02 c 5,28,-1
 369.25 415.02 l 5,30,-1
 369.25 -4.99002 l 1,33,-1
 277.421 -4.99002 l 1,36,-1
 277.421 325.01 l 5,38,-1
 185.09 325.01 l 5,39,-1
 185.09 -4.99002 l 1,41,-1
 90.21 -4.99002 l 1,44,-1
 90.21 326.99 l 5,46,-1
 45.5098 326.99 l 5,48,-1
 45.5098 415.02 l 5,51,-1
 93.793 415.02 l 5,53,54
 93.793 533.069 93.793 533.069 135.685 589.399 c 0,57,58
 194.83 668.925 194.83 668.925 285.46 638.1 c 0,0,1
 341.963 618.88 341.963 618.88 361.597 558.136 c 0,4,5
 368.851 535.694 368.851 535.694 368.851 509.322 c 1,8,9
 368.851 471.47 l 1,11,-1
 279.092 471.47 l 1,14,-1
EndSplineSet
LCarets2: 1 0 
Ligature2: "'liga' Standard Ligatures in Latin lookup 0 subtable" f i
EndChar

StartChar: fl
Encoding: 175 64258 178
Width: 458
Flags: W
LayerCount: 2
Fore
SplineSet
321.985 646.165 m 1,47,-1
 410.97 646.165 l 1,1,-1
 410.97 -4.26996 l 1,4,-1
 316.98 -4.26996 l 1,7,-1
 316.98 550.778 l 1,9,-1
 251.976 550.778 l 1,10,11
 214.944 550.778 214.944 550.778 202.617 522.805 c 128,-1,15
 190.291 494.832 190.291 494.832 190.291 415.02 c 5,16,-1
 282.24 415.02 l 5,18,-1
 282.24 325.01 l 5,21,-1
 187.52 325.01 l 5,23,-1
 187.52 -4.98996 l 1,25,-1
 92.63 -4.98996 l 1,28,-1
 92.6299 326.99 l 5,30,-1
 47.9404 326.99 l 5,32,-1
 47.9404 415.02 l 5,35,-1
 96.2227 415.02 l 5,37,38
 96.2227 526.015 96.2227 526.015 133.17 586.169 c 128,-1,40
 170.118 646.324 170.118 646.324 228.743 646.324 c 1,41,42
 227.143 646.165 227.143 646.165 321.985 646.165 c 1,47,-1
EndSplineSet
LCarets2: 1 0 
Ligature2: "'liga' Standard Ligatures in Latin lookup 0 subtable" f l
EndChar

StartChar: uniFB06
Encoding: 326 64262 179
Width: 447
Flags: W
LayerCount: 2
Fore
SplineSet
242.725 646.679 m 2,45,-1
 384.745 646.679 l 1,1,-1
 384.745 429.02 l 1,3,-1
 429.65 429.02 l 1,5,-1
 429.65 334.02 l 1,8,-1
 383.66 334.02 l 1,10,-1
 383.66 -4.99005 l 1,12,-1
 289.59 -4.99005 l 1,15,-1
 289.59 334.98 l 1,17,-1
 248.9 334.98 l 1,19,-1
 248.9 429.02 l 1,22,-1
 293.13 429.02 l 1,24,-1
 293.13 552.022 l 1,25,-1
 253.443 552.022 l 2,26,27
 221.281 552.022 221.281 552.022 206.551 523.889 c 128,-1,29
 191.82 495.756 191.82 495.756 191.82 419.02 c 2,30,-1
 191.82 -4.99008 l 1,32,-1
 95.78 -4.99008 l 1,35,-1
 95.78 420.99 l 2,37,38
 95.78 471.64 95.78 471.64 111.113 524.07 c 0,39,40
 126.512 576.731 126.512 576.731 148.917 600.794 c 0,41,42
 191.639 646.679 191.639 646.679 242.725 646.679 c 2,45,-1
EndSplineSet
LCarets2: 1 0 
Ligature2: "'dlig' optionale Ligaturen in Latin lookup 1 subtable" s t
EndChar

StartChar: emdash
Encoding: 208 8212 180
Width: 631
Flags: W
HStem: 222 81<70.39 416.61 70.39 416.61>
LayerCount: 2
Fore
SplineSet
586.61 217 m 1,10,-1
 40.3896 217 l 5,1,-1
 40.3896 308 l 5,4,-1
 586.61 308 l 1,7,-1
 586.61 217 l 1,10,-1
EndSplineSet
EndChar

StartChar: endash
Encoding: 177 8211 181
Width: 445
Flags: W
HStem: 222 81<70.39 416.61 70.39 416.61>
LayerCount: 2
Fore
SplineSet
421.61 217 m 1,10,-1
 65.39 217 l 1,1,-1
 65.39 308 l 1,4,-1
 421.61 308 l 1,7,-1
 421.61 217 l 1,10,-1
EndSplineSet
EndChar
